<?xml version="1.0" encoding="UTF-8" ?>
<!DOCTYPE svg PUBLIC "-//W3C//DTD SVG 1.1//EN" "http://www.w3.org/Graphics/SVG/1.1/DTD/svg11.dtd">
<svg width="81pt" height="81pt" viewBox="0 0 81 81" version="1.1" xmlns="http://www.w3.org/2000/svg">
<g id="#ffcc00ff">
</g>
<g id="#303030ff">
<path fill="#303030" opacity="1.00" d=" M 36.37 1.45 C 40.28 0.32 40.87 5.46 43.16 7.10 C 45.91 7.05 50.07 2.88 51.79 6.96 C 50.66 11.03 48.12 14.69 47.88 19.00 C 47.47 20.96 48.27 23.85 45.89 24.76 C 40.63 27.44 34.16 27.23 28.76 25.07 C 26.47 23.55 26.09 20.44 24.93 18.11 C 24.00 15.09 21.60 12.32 21.92 9.05 C 23.98 6.92 27.29 8.27 29.91 7.74 C 33.58 7.59 33.08 2.31 36.37 1.45 Z" />
<path fill="#303030" opacity="1.00" d=" M 26.95 28.43 C 33.93 32.36 43.32 32.17 49.87 27.44 C 60.14 30.89 69.18 38.41 73.61 48.39 C 75.84 52.94 74.68 58.15 74.98 63.01 C 75.52 69.38 70.39 74.74 64.64 76.58 C 54.17 80.18 42.90 79.51 32.00 79.43 C 24.31 78.87 15.85 78.40 9.50 73.49 C 3.90 68.85 3.58 60.83 4.40 54.16 C 6.61 42.36 15.90 32.65 26.95 28.43 Z" />
</g>
</svg>
