<?xml version="1.0" encoding="UTF-8" ?>
<!DOCTYPE svg PUBLIC "-//W3C//DTD SVG 1.1//EN" "http://www.w3.org/Graphics/SVG/1.1/DTD/svg11.dtd">
<svg width="81pt" height="81pt" viewBox="0 0 81 81" version="1.1" xmlns="http://www.w3.org/2000/svg">
<g id="#ffcc00ff">
</g>
<g id="#303030ff">
<path fill="#303030" opacity="1.00" d=" M 19.23 3.28 C 32.48 2.73 45.78 3.23 59.05 3.03 C 64.89 2.63 69.91 8.31 69.77 13.97 C 69.79 31.67 69.79 49.39 69.77 67.10 C 69.97 72.75 64.96 78.55 59.06 77.97 C 46.68 77.93 34.30 77.94 21.92 77.97 C 16.01 78.48 11.27 72.61 11.25 67.05 C 11.17 49.67 11.25 32.29 11.21 14.91 C 10.99 9.86 14.32 4.73 19.23 3.28 M 20.26 9.19 C 18.16 10.24 17.00 12.56 17.18 14.86 C 17.16 31.58 17.22 48.30 17.16 65.02 C 17.13 67.14 17.18 69.56 18.97 71.03 C 20.78 72.97 23.64 72.55 26.03 72.65 C 36.69 72.54 47.36 72.69 58.02 72.59 C 61.04 72.77 64.02 70.18 63.88 67.08 C 63.97 49.71 63.89 32.33 63.92 14.96 C 64.39 11.53 61.44 8.33 57.99 8.54 C 47.67 8.40 37.34 8.59 27.02 8.47 C 24.77 8.54 22.36 8.21 20.26 9.19 Z" />
<path fill="#303030" opacity="1.00" d=" M 25.28 12.31 C 35.20 11.98 45.16 12.15 55.08 12.23 C 62.64 12.53 62.67 26.51 55.10 26.81 C 45.41 26.97 35.71 26.95 26.03 26.81 C 18.78 26.44 18.43 13.64 25.28 12.31 Z" />
<path fill="#303030" opacity="1.00" d=" M 20.78 33.77 C 22.41 31.07 26.30 31.63 28.93 32.21 C 32.02 33.56 30.81 37.50 31.20 40.14 C 29.10 42.93 25.26 43.05 22.19 42.03 C 19.59 40.21 20.23 36.45 20.78 33.77 Z" />
<path fill="#303030" opacity="1.00" d=" M 35.00 33.99 C 37.13 31.47 40.79 31.31 43.74 32.27 C 46.44 33.65 45.85 37.29 45.55 39.77 C 44.54 43.38 39.84 42.75 37.01 42.13 C 34.16 40.43 35.36 36.70 35.00 33.99 Z" />
<path fill="#303030" opacity="1.00" d=" M 51.37 32.44 C 54.12 31.44 58.44 31.04 60.12 34.03 C 60.53 36.81 61.24 41.08 57.86 42.29 C 55.28 42.62 51.87 43.16 50.13 40.70 C 49.59 38.07 48.79 34.23 51.37 32.44 Z" />
<path fill="#303030" opacity="1.00" d=" M 20.74 46.76 C 22.30 43.91 26.31 44.42 28.98 45.02 C 31.95 46.60 30.86 50.34 31.19 53.06 C 29.10 55.82 25.30 55.90 22.26 54.93 C 19.57 53.23 20.25 49.41 20.74 46.76 Z" />
<path fill="#303030" opacity="1.00" d=" M 34.99 46.97 C 37.34 43.93 43.09 43.43 45.34 46.73 C 46.00 49.40 46.46 53.12 43.90 54.96 C 41.69 55.65 39.28 55.53 37.04 55.08 C 34.20 53.37 35.33 49.69 34.99 46.97 Z" />
<path fill="#303030" opacity="1.00" d=" M 51.37 45.32 C 54.08 44.17 58.63 43.88 60.15 47.06 C 60.65 51.68 60.18 56.34 60.38 60.98 C 60.35 63.43 60.90 66.94 57.93 67.93 C 55.26 68.43 51.53 68.81 49.95 66.03 C 49.40 61.35 49.89 56.63 49.70 51.93 C 49.87 49.70 49.08 46.71 51.37 45.32 Z" />
<path fill="#303030" opacity="1.00" d=" M 21.10 66.88 C 20.00 64.07 19.36 58.96 23.03 57.80 C 25.72 57.36 29.62 57.00 30.90 60.05 C 31.17 62.04 31.09 64.07 31.16 66.08 C 28.72 68.85 23.91 69.23 21.10 66.88 Z" />
<path fill="#303030" opacity="1.00" d=" M 35.03 59.84 C 37.10 57.12 40.86 57.15 43.86 58.02 C 46.50 59.80 45.98 63.61 45.33 66.27 C 43.05 69.43 37.44 68.99 35.04 66.08 C 35.11 64.00 35.11 61.92 35.03 59.84 Z" />
</g>
</svg>
