<?xml version="1.0" encoding="UTF-8" ?>
<!DOCTYPE svg PUBLIC "-//W3C//DTD SVG 1.1//EN" "http://www.w3.org/Graphics/SVG/1.1/DTD/svg11.dtd">
<svg width="81pt" height="81pt" viewBox="0 0 81 81" version="1.1" xmlns="http://www.w3.org/2000/svg">
<g id="#ffcc00ff">
</g>
<g id="#414141ff">
<path fill="#414141" opacity="1.00" d=" M 34.43 1.52 C 44.53 -0.08 55.25 2.39 63.54 8.41 C 78.69 18.73 84.31 40.14 76.68 56.70 C 70.53 70.80 55.50 80.67 40.03 79.96 C 22.50 80.33 6.11 67.04 2.20 50.06 C -0.71 38.54 1.94 25.74 9.31 16.40 C 15.36 8.46 24.57 3.04 34.43 1.52 M 36.21 6.29 C 20.97 8.04 8.03 20.99 6.27 36.22 C 5.04 45.93 8.14 56.05 14.64 63.36 C 20.52 70.12 29.13 74.39 38.05 75.05 C 48.40 75.86 58.99 71.63 65.97 63.96 C 72.40 57.05 75.81 47.40 75.06 37.97 C 74.28 27.64 68.60 17.78 59.97 12.02 C 53.10 7.28 44.49 5.24 36.21 6.29 Z" />
<path fill="#414141" opacity="1.00" d=" M 40.47 11.04 C 50.91 10.66 61.08 16.70 66.24 25.70 C 68.95 30.14 70.01 35.33 70.43 40.46 C 60.43 40.55 50.43 40.51 40.43 40.47 C 40.56 30.66 40.49 20.85 40.47 11.04 Z" />
<path fill="#414141" opacity="1.00" d=" M 23.57 16.13 C 25.03 15.30 26.48 14.46 27.93 13.62 C 28.77 15.08 29.60 16.55 30.44 18.01 C 28.98 18.83 27.52 19.67 26.05 20.50 C 25.23 19.04 24.40 17.59 23.57 16.13 Z" />
<path fill="#414141" opacity="1.00" d=" M 16.14 23.60 C 17.58 24.40 19.02 25.19 20.47 25.97 C 19.62 27.44 18.92 28.99 17.98 30.42 C 16.52 29.59 15.06 28.76 13.60 27.94 C 14.44 26.49 15.30 25.05 16.14 23.60 Z" />
<path fill="#414141" opacity="1.00" d=" M 10.89 38.15 C 12.57 38.18 14.25 38.18 15.93 38.18 C 15.88 39.82 15.85 41.47 15.84 43.11 C 14.19 43.09 12.54 43.09 10.89 43.10 C 10.91 41.45 10.91 39.80 10.89 38.15 Z" />
<path fill="#414141" opacity="1.00" d=" M 13.61 53.23 C 15.07 52.40 16.52 51.57 17.97 50.74 C 18.83 52.19 19.69 53.64 20.55 55.09 C 19.07 55.90 17.60 56.73 16.13 57.55 C 15.30 56.10 14.44 54.67 13.61 53.23 Z" />
<path fill="#414141" opacity="1.00" d=" M 63.19 50.78 C 64.64 51.59 66.09 52.41 67.54 53.21 C 66.70 54.67 65.85 56.12 65.01 57.58 C 63.54 56.74 62.07 55.91 60.61 55.07 C 61.47 53.64 62.33 52.21 63.19 50.78 Z" />
<path fill="#414141" opacity="1.00" d=" M 26.08 60.67 C 27.52 61.50 28.96 62.34 30.41 63.16 C 29.59 64.63 28.76 66.08 27.95 67.55 C 26.48 66.70 25.01 65.86 23.54 65.01 C 24.39 63.57 25.23 62.11 26.08 60.67 Z" />
<path fill="#414141" opacity="1.00" d=" M 50.72 63.15 C 52.18 62.33 53.62 61.49 55.08 60.66 C 55.93 62.11 56.76 63.58 57.62 65.03 C 56.14 65.85 54.68 66.68 53.21 67.51 C 52.38 66.05 51.55 64.60 50.72 63.15 Z" />
<path fill="#414141" opacity="1.00" d=" M 38.10 65.30 C 39.74 65.30 41.37 65.29 43.00 65.26 C 43.01 66.94 43.02 68.62 43.08 70.30 C 41.41 70.28 39.75 70.27 38.08 70.28 C 38.10 68.62 38.07 66.96 38.10 65.30 Z" />
</g>
</svg>
