<?xml version="1.0" encoding="UTF-8" ?>
<!DOCTYPE svg PUBLIC "-//W3C//DTD SVG 1.1//EN" "http://www.w3.org/Graphics/SVG/1.1/DTD/svg11.dtd">
<svg width="81pt" height="81pt" viewBox="0 0 81 81" version="1.1" xmlns="http://www.w3.org/2000/svg">
<g id="#ffcc00ff">
</g>
<g id="#303030ff">
<path fill="#303030" opacity="1.00" d=" M 18.39 13.69 C 23.98 12.72 30.52 12.25 35.45 15.57 C 39.18 18.14 38.15 23.11 38.28 26.98 C 38.20 30.58 39.02 35.18 35.53 37.53 C 31.31 40.46 25.76 40.15 20.86 39.81 C 17.15 39.53 12.77 37.88 11.73 33.92 C 11.31 29.63 11.58 25.30 11.55 21.00 C 11.40 17.21 14.96 14.39 18.39 13.69 M 21.40 19.51 C 18.64 20.91 19.38 24.43 19.22 26.96 C 19.38 29.03 18.82 31.75 20.79 33.15 C 23.60 34.80 27.95 34.78 29.99 31.94 C 30.90 28.77 30.68 25.33 30.29 22.08 C 29.17 18.52 24.35 18.16 21.40 19.51 Z" />
<path fill="#303030" opacity="1.00" d=" M 57.46 20.20 C 61.52 17.17 64.46 25.06 61.84 27.73 C 48.97 41.14 35.68 54.14 22.71 67.46 C 22.06 67.47 20.77 67.50 20.12 67.52 C 18.61 65.28 16.91 62.15 18.63 59.59 C 31.39 46.29 44.66 33.46 57.46 20.20 Z" />
<path fill="#303030" opacity="1.00" d=" M 50.47 47.76 C 54.92 46.67 59.69 46.66 64.13 47.86 C 67.38 48.69 70.32 51.50 70.25 55.03 C 70.25 59.01 70.40 63.00 70.16 66.97 C 69.94 70.39 66.72 72.66 63.62 73.31 C 58.85 74.34 53.76 74.35 49.10 72.84 C 46.19 71.94 43.93 69.21 44.03 66.09 C 43.99 62.07 43.87 58.03 44.10 54.02 C 44.51 50.75 47.43 48.49 50.47 47.76 M 54.29 53.34 C 51.88 54.04 51.69 56.90 51.70 58.99 C 51.81 61.50 51.27 64.27 52.58 66.56 C 55.44 69.45 62.40 68.66 62.47 63.85 C 62.51 60.93 62.97 57.83 61.95 55.03 C 60.32 52.67 56.80 52.19 54.29 53.34 Z" />
</g>
</svg>
