<?xml version="1.0" encoding="UTF-8" ?>
<!DOCTYPE svg PUBLIC "-//W3C//DTD SVG 1.1//EN" "http://www.w3.org/Graphics/SVG/1.1/DTD/svg11.dtd">
<svg width="81pt" height="81pt" viewBox="0 0 81 81" version="1.1" xmlns="http://www.w3.org/2000/svg">
<g id="#ffcc00ff">
</g>
<g id="#303030ff">
<path fill="#303030" opacity="1.00" d=" M 19.79 10.00 C 23.50 3.54 33.34 2.12 38.66 7.36 C 41.39 9.61 42.38 13.10 43.04 16.43 C 41.78 16.48 40.53 16.52 39.27 16.56 C 39.39 10.95 33.48 6.10 28.03 7.88 C 22.79 9.14 19.71 15.57 22.39 20.38 C 21.25 20.90 20.10 21.41 18.95 21.92 C 17.65 18.02 17.42 13.55 19.79 10.00 Z" />
<path fill="#303030" opacity="1.00" d=" M 57.32 12.46 C 59.07 11.92 61.21 10.42 62.73 12.20 C 62.47 16.11 60.12 19.68 60.09 23.70 C 65.86 26.16 70.07 31.42 71.38 37.54 C 73.94 37.61 77.40 37.49 78.50 40.38 C 79.03 44.07 78.97 47.92 78.55 51.62 C 77.55 54.72 73.87 54.49 71.24 54.55 C 68.98 58.88 65.83 62.76 61.50 65.15 C 61.97 67.01 63.30 68.97 62.26 70.89 C 61.65 72.77 59.54 73.33 57.96 74.11 C 55.71 74.95 53.21 76.32 50.79 75.32 C 48.64 74.15 48.12 71.56 47.22 69.50 C 42.29 70.04 37.29 70.15 32.40 69.18 C 31.31 71.72 30.42 75.66 26.99 75.70 C 23.96 75.34 21.04 74.09 18.44 72.53 C 15.47 70.15 17.64 66.28 18.77 63.54 C 15.53 60.64 12.34 57.47 10.64 53.39 C 8.61 49.07 9.07 44.13 9.80 39.56 C 6.56 37.83 3.08 35.11 3.17 31.04 C 2.83 27.58 5.37 24.94 8.06 23.21 C 8.81 24.02 9.56 24.84 10.30 25.67 C 8.75 27.17 6.30 28.52 6.63 31.05 C 6.57 33.51 8.87 34.84 10.62 36.06 C 16.67 21.88 34.46 17.35 48.42 20.39 C 50.67 17.06 53.49 13.94 57.32 12.46 M 50.13 24.23 C 39.84 21.75 28.05 22.72 19.59 29.61 C 13.82 34.09 11.79 42.01 12.86 49.01 C 13.75 53.99 17.52 57.63 21.04 60.93 C 23.87 63.45 20.39 66.79 20.37 69.68 C 22.50 70.88 24.86 71.60 27.12 72.49 C 28.62 70.06 29.01 65.02 32.92 65.77 C 38.15 67.00 43.47 66.13 48.75 66.28 C 50.92 67.49 51.14 70.36 52.14 72.42 C 54.55 71.64 56.92 70.77 59.28 69.87 C 58.88 67.78 57.22 65.45 58.40 63.38 C 60.22 61.50 62.68 60.38 64.46 58.46 C 66.25 56.49 67.24 53.96 68.93 51.93 C 70.80 50.72 73.21 51.17 75.32 50.91 C 75.49 47.69 75.60 44.46 75.20 41.25 C 72.50 41.20 68.25 41.60 67.83 37.95 C 66.70 32.21 62.14 27.91 56.73 26.07 C 56.44 22.48 57.30 18.97 58.36 15.58 C 54.68 17.46 52.32 20.85 50.13 24.23 Z" />
<path fill="#303030" opacity="1.00" d=" M 58.34 38.21 C 60.06 36.90 62.17 38.40 62.99 40.01 C 63.91 42.59 60.62 45.49 58.26 43.80 C 55.95 42.86 55.99 39.08 58.34 38.21 Z" />
</g>
</svg>
