<?xml version="1.0" encoding="UTF-8" ?>
<!DOCTYPE svg PUBLIC "-//W3C//DTD SVG 1.1//EN" "http://www.w3.org/Graphics/SVG/1.1/DTD/svg11.dtd">
<svg width="109pt" height="109pt" viewBox="0 0 109 109" version="1.1" xmlns="http://www.w3.org/2000/svg">
<g id="#1d73beff">
<path fill="#1d73be" opacity="1.00" d=" M 0.00 0.00 L 109.00 0.00 L 109.00 50.51 C 102.87 44.67 97.00 38.58 91.01 32.60 C 80.59 28.17 69.71 24.84 59.13 20.78 C 56.41 19.86 53.44 18.20 50.56 19.48 C 39.73 23.73 28.93 28.05 18.10 32.27 C 17.98 44.85 18.13 57.44 18.01 70.03 C 19.50 70.75 20.99 71.47 22.47 72.21 C 21.70 73.74 23.30 74.80 24.09 75.85 C 35.15 86.88 46.26 97.86 57.20 109.00 L 0.00 109.00 L 0.00 0.00 Z" />
</g>
<g id="#ffffffff">
<path fill="#ffffff" opacity="1.00" d=" M 50.56 19.48 C 53.44 18.20 56.41 19.86 59.13 20.78 C 69.71 24.84 80.59 28.17 91.01 32.60 C 90.92 45.08 90.83 57.57 91.05 70.05 C 80.80 77.07 70.44 83.91 60.13 90.84 C 47.64 84.49 34.98 78.50 22.47 72.21 C 20.99 71.47 19.50 70.75 18.01 70.03 C 18.13 57.44 17.98 44.85 18.10 32.27 C 28.93 28.05 39.73 23.73 50.56 19.48 M 45.97 27.95 C 56.36 31.70 66.62 35.83 76.90 39.86 C 79.17 38.61 81.55 37.59 83.83 36.36 C 83.81 36.16 83.79 35.78 83.78 35.58 C 73.46 32.06 63.25 28.20 52.99 24.53 C 50.74 25.80 47.60 25.88 45.97 27.95 M 27.90 34.46 C 39.06 39.28 50.54 43.45 61.88 47.85 C 64.60 46.20 67.74 45.21 70.16 43.08 C 59.31 39.10 48.53 34.90 37.82 30.55 C 34.50 31.82 31.20 33.13 27.90 34.46 M 23.66 35.96 C 23.49 46.08 23.77 56.21 23.52 66.33 C 35.60 72.61 47.91 78.45 60.13 84.45 C 60.19 73.62 60.13 62.78 60.17 51.95 C 60.62 50.27 58.96 49.78 57.79 49.33 C 46.41 44.88 34.98 40.55 23.66 35.96 Z" />
<path fill="#ffffff" opacity="1.00" d=" M 32.07 53.24 C 33.48 51.47 34.86 49.66 36.20 47.83 C 37.58 50.55 39.13 53.20 40.44 55.97 C 39.73 55.75 38.31 55.31 37.60 55.09 C 37.65 57.69 37.65 60.29 37.67 62.89 C 36.71 62.57 35.75 62.24 34.79 61.92 C 34.80 59.33 34.77 56.74 34.78 54.16 C 34.10 53.93 32.74 53.47 32.07 53.24 Z" />
<path fill="#ffffff" opacity="1.00" d=" M 47.35 51.87 C 48.83 54.46 50.19 57.12 51.62 59.74 C 50.68 59.62 49.74 59.46 48.81 59.26 C 48.81 62.05 48.85 64.84 49.00 67.63 C 48.28 67.42 46.84 66.99 46.12 66.77 C 46.12 63.92 46.22 61.07 46.00 58.22 C 45.28 57.96 43.86 57.44 43.14 57.18 C 44.63 55.48 46.03 53.71 47.35 51.87 Z" />
<path fill="#ffffff" opacity="1.00" d=" M 32.16 62.99 C 38.64 66.15 45.22 69.11 51.69 72.29 C 51.69 73.45 51.68 74.62 51.67 75.79 C 45.12 72.46 38.32 69.62 31.81 66.19 C 31.90 65.39 32.08 63.79 32.16 62.99 Z" />
</g>
<g id="#185c99ff">
<path fill="#185c99" opacity="1.00" d=" M 45.97 27.95 C 47.60 25.88 50.74 25.80 52.99 24.53 C 63.25 28.20 73.46 32.06 83.78 35.58 C 83.79 35.78 83.81 36.16 83.83 36.36 C 81.55 37.59 79.17 38.61 76.90 39.86 C 66.62 35.83 56.36 31.70 45.97 27.95 Z" />
<path fill="#185c99" opacity="1.00" d=" M 27.90 34.46 C 31.20 33.13 34.50 31.82 37.82 30.55 C 48.53 34.90 59.31 39.10 70.16 43.08 C 67.74 45.21 64.60 46.20 61.88 47.85 C 50.54 43.45 39.06 39.28 27.90 34.46 Z" />
<path fill="#185c99" opacity="1.00" d=" M 91.01 32.60 C 97.00 38.58 102.87 44.67 109.00 50.51 L 109.00 109.00 L 57.20 109.00 C 46.26 97.86 35.15 86.88 24.09 75.85 C 23.30 74.80 21.70 73.74 22.47 72.21 C 34.98 78.50 47.64 84.49 60.13 90.84 C 70.44 83.91 80.80 77.07 91.05 70.05 C 90.83 57.57 90.92 45.08 91.01 32.60 Z" />
<path fill="#185c99" opacity="1.00" d=" M 23.66 35.96 C 34.98 40.55 46.41 44.88 57.79 49.33 C 58.96 49.78 60.62 50.27 60.17 51.95 C 60.13 62.78 60.19 73.62 60.13 84.45 C 47.91 78.45 35.60 72.61 23.52 66.33 C 23.77 56.21 23.49 46.08 23.66 35.96 M 32.07 53.24 C 32.74 53.47 34.10 53.93 34.78 54.16 C 34.77 56.74 34.80 59.33 34.79 61.92 C 35.75 62.24 36.71 62.57 37.67 62.89 C 37.65 60.29 37.65 57.69 37.60 55.09 C 38.31 55.31 39.73 55.75 40.44 55.97 C 39.13 53.20 37.58 50.55 36.20 47.83 C 34.86 49.66 33.48 51.47 32.07 53.24 M 47.35 51.87 C 46.03 53.71 44.63 55.48 43.14 57.18 C 43.86 57.44 45.28 57.96 46.00 58.22 C 46.22 61.07 46.12 63.92 46.12 66.77 C 46.84 66.99 48.28 67.42 49.00 67.63 C 48.85 64.84 48.81 62.05 48.81 59.26 C 49.74 59.46 50.68 59.62 51.62 59.74 C 50.19 57.12 48.83 54.46 47.35 51.87 M 32.16 62.99 C 32.08 63.79 31.90 65.39 31.81 66.19 C 38.32 69.62 45.12 72.46 51.67 75.79 C 51.68 74.62 51.69 73.45 51.69 72.29 C 45.22 69.11 38.64 66.15 32.16 62.99 Z" />
</g>
</svg>
