<?xml version="1.0" encoding="UTF-8" ?>
<!DOCTYPE svg PUBLIC "-//W3C//DTD SVG 1.1//EN" "http://www.w3.org/Graphics/SVG/1.1/DTD/svg11.dtd">
<svg width="109pt" height="109pt" viewBox="0 0 109 109" version="1.1" xmlns="http://www.w3.org/2000/svg">
<g id="#1d73beff">
<path fill="#1d73be" opacity="1.00" d=" M 0.00 0.00 L 109.00 0.00 L 109.00 43.53 C 102.65 37.08 96.35 30.57 89.59 24.56 C 87.67 22.74 85.90 20.17 82.98 20.10 C 78.50 19.32 73.84 23.40 74.52 28.00 C 74.76 30.82 77.36 32.38 79.17 34.21 C 80.20 35.39 81.17 36.63 82.14 37.87 C 77.96 39.63 74.86 43.01 71.52 45.94 C 68.36 42.65 65.20 39.37 61.88 36.24 C 59.60 33.49 55.86 33.97 52.68 33.78 C 52.65 34.49 52.60 35.91 52.58 36.62 C 51.98 36.65 50.78 36.71 50.18 36.74 C 50.08 36.04 49.88 34.63 49.79 33.93 C 47.85 33.89 45.93 33.83 44.00 33.83 C 41.07 30.29 37.55 27.32 34.27 24.12 C 32.24 22.22 30.07 19.79 27.00 20.05 C 22.81 19.80 18.83 23.73 19.43 27.97 C 19.68 30.88 22.22 32.66 24.42 34.17 C 25.28 35.41 26.15 36.66 27.01 37.90 C 25.20 38.90 22.44 39.57 22.25 42.04 C 21.82 47.69 22.14 53.37 22.05 59.02 C 21.83 61.37 22.90 63.47 23.91 65.49 C 23.11 72.68 21.75 79.79 20.83 86.96 C 21.63 87.77 22.43 88.58 23.22 89.40 C 29.55 96.04 36.10 102.46 42.52 109.00 L 0.00 109.00 L 0.00 0.00 Z" />
</g>
<g id="#fffffeff">
<path fill="#fffffe" opacity="1.00" d=" M 19.43 27.97 C 18.83 23.73 22.81 19.80 27.00 20.05 C 30.07 19.79 32.24 22.22 34.27 24.12 C 34.53 26.73 34.77 29.77 32.69 31.75 C 30.68 34.18 27.34 34.45 24.42 34.17 C 22.22 32.66 19.68 30.88 19.43 27.97 Z" />
<path fill="#fffffe" opacity="1.00" d=" M 74.52 28.00 C 73.84 23.40 78.50 19.32 82.98 20.10 C 85.90 20.17 87.67 22.74 89.59 24.56 C 89.54 27.04 89.75 29.93 87.75 31.78 C 85.66 34.27 82.17 34.43 79.17 34.21 C 77.36 32.38 74.76 30.82 74.52 28.00 Z" />
<path fill="#fffffe" opacity="1.00" d=" M 40.87 45.09 C 40.70 41.26 39.22 35.39 44.00 33.83 C 45.93 33.83 47.85 33.89 49.79 33.93 C 49.88 34.63 50.08 36.04 50.18 36.74 C 50.78 36.71 51.98 36.65 52.58 36.62 C 52.60 35.91 52.65 34.49 52.68 33.78 C 55.86 33.97 59.60 33.49 61.88 36.24 C 61.80 40.48 62.01 44.73 61.75 48.97 C 61.82 50.31 61.02 51.45 59.91 52.12 C 56.13 52.86 52.24 52.48 48.41 52.50 C 45.94 50.01 42.68 48.11 40.87 45.09 M 47.22 44.08 C 47.84 44.11 49.10 44.17 49.72 44.20 C 49.68 45.86 49.64 47.52 49.60 49.19 C 50.42 49.18 52.07 49.18 52.90 49.17 C 52.88 47.48 52.87 45.78 52.85 44.09 C 53.47 44.12 54.69 44.19 55.30 44.23 C 54.02 42.65 52.67 41.13 51.34 39.59 C 49.97 41.10 48.64 42.63 47.22 44.08 Z" />
<path fill="#fffffe" opacity="1.00" d=" M 22.25 42.04 C 22.44 39.57 25.20 38.90 27.01 37.90 C 31.67 40.01 35.04 43.97 38.89 47.18 C 41.36 49.42 44.11 51.40 46.13 54.07 C 46.95 56.19 44.00 57.69 42.43 56.45 C 38.57 53.75 35.37 50.26 31.79 47.22 C 31.43 53.22 33.21 59.74 30.21 65.29 C 32.07 72.75 34.00 80.20 35.98 87.64 C 34.51 88.09 32.22 90.05 31.21 87.90 C 29.40 83.82 28.95 79.28 27.71 75.01 C 26.15 79.74 27.70 86.13 23.22 89.40 C 22.43 88.58 21.63 87.77 20.83 86.96 C 21.75 79.79 23.11 72.68 23.91 65.49 C 22.90 63.47 21.83 61.37 22.05 59.02 C 22.14 53.37 21.82 47.69 22.25 42.04 Z" />
<path fill="#fffffe" opacity="1.00" d=" M 71.52 45.94 C 74.86 43.01 77.96 39.63 82.14 37.87 C 83.86 38.93 86.51 39.63 86.75 42.01 C 87.16 47.99 86.89 54.01 86.92 60.00 C 87.03 62.02 85.85 63.73 85.07 65.49 C 85.96 72.89 87.23 80.24 88.34 87.61 C 86.85 88.04 84.58 89.52 83.59 87.53 C 82.41 83.45 82.17 79.16 81.29 75.01 C 80.32 78.62 79.67 82.31 78.60 85.90 C 78.13 86.92 78.00 88.44 76.77 88.85 C 75.39 88.96 74.18 88.23 73.04 87.57 C 75.01 80.15 76.94 72.73 78.79 65.29 C 75.80 59.74 77.57 53.23 77.21 47.23 C 73.61 50.27 70.40 53.79 66.52 56.49 C 64.95 57.64 62.11 56.18 62.84 54.10 C 65.30 50.95 68.61 48.64 71.52 45.94 Z" />
</g>
<g id="#185c99ff">
<path fill="#185c99" opacity="1.00" d=" M 34.27 24.12 C 37.55 27.32 41.07 30.29 44.00 33.83 C 39.22 35.39 40.70 41.26 40.87 45.09 C 42.68 48.11 45.94 50.01 48.41 52.50 C 52.24 52.48 56.13 52.86 59.91 52.12 C 61.02 51.45 61.82 50.31 61.75 48.97 C 62.01 44.73 61.80 40.48 61.88 36.24 C 65.20 39.37 68.36 42.65 71.52 45.94 C 68.61 48.64 65.30 50.95 62.84 54.10 C 62.11 56.18 64.95 57.64 66.52 56.49 C 70.40 53.79 73.61 50.27 77.21 47.23 C 77.57 53.23 75.80 59.74 78.79 65.29 C 76.94 72.73 75.01 80.15 73.04 87.57 C 74.18 88.23 75.39 88.96 76.77 88.85 C 78.00 88.44 78.13 86.92 78.60 85.90 C 79.67 82.31 80.32 78.62 81.29 75.01 C 82.17 79.16 82.41 83.45 83.59 87.53 C 84.58 89.52 86.85 88.04 88.34 87.61 C 87.23 80.24 85.96 72.89 85.07 65.49 C 85.85 63.73 87.03 62.02 86.92 60.00 C 86.89 54.01 87.16 47.99 86.75 42.01 C 86.51 39.63 83.86 38.93 82.14 37.87 C 81.17 36.63 80.20 35.39 79.17 34.21 C 82.17 34.43 85.66 34.27 87.75 31.78 C 89.75 29.93 89.54 27.04 89.59 24.56 C 96.35 30.57 102.65 37.08 109.00 43.53 L 109.00 109.00 L 42.52 109.00 C 36.10 102.46 29.55 96.04 23.22 89.40 C 27.70 86.13 26.15 79.74 27.71 75.01 C 28.95 79.28 29.40 83.82 31.21 87.90 C 32.22 90.05 34.51 88.09 35.98 87.64 C 34.00 80.20 32.07 72.75 30.21 65.29 C 33.21 59.74 31.43 53.22 31.79 47.22 C 35.37 50.26 38.57 53.75 42.43 56.45 C 44.00 57.69 46.95 56.19 46.13 54.07 C 44.11 51.40 41.36 49.42 38.89 47.18 C 35.04 43.97 31.67 40.01 27.01 37.90 C 26.15 36.66 25.28 35.41 24.42 34.17 C 27.34 34.45 30.68 34.18 32.69 31.75 C 34.77 29.77 34.53 26.73 34.27 24.12 Z" />
<path fill="#185c99" opacity="1.00" d=" M 47.22 44.08 C 48.64 42.63 49.97 41.10 51.34 39.59 C 52.67 41.13 54.02 42.65 55.30 44.23 C 54.69 44.19 53.47 44.12 52.85 44.09 C 52.87 45.78 52.88 47.48 52.90 49.17 C 52.07 49.18 50.42 49.18 49.60 49.19 C 49.64 47.52 49.68 45.86 49.72 44.20 C 49.10 44.17 47.84 44.11 47.22 44.08 Z" />
</g>
</svg>
