<?xml version="1.0" encoding="UTF-8" ?>
<!DOCTYPE svg PUBLIC "-//W3C//DTD SVG 1.1//EN" "http://www.w3.org/Graphics/SVG/1.1/DTD/svg11.dtd">
<svg width="109pt" height="109pt" viewBox="0 0 109 109" version="1.1" xmlns="http://www.w3.org/2000/svg">
<g id="#1d73beff">
<path fill="#1d73be" opacity="1.00" d=" M 0.00 0.00 L 109.00 0.00 L 109.00 43.50 C 102.46 37.31 96.60 30.38 89.54 24.75 C 87.88 22.67 85.96 20.26 83.06 20.10 C 78.56 19.29 73.83 23.36 74.51 28.01 C 74.79 30.90 77.32 32.66 79.49 34.18 C 80.33 35.43 81.17 36.67 82.01 37.92 C 77.89 39.68 74.85 43.06 71.52 45.94 C 68.36 42.67 65.17 39.42 61.89 36.27 C 59.65 33.46 55.87 33.98 52.68 33.79 C 52.65 34.49 52.60 35.91 52.58 36.61 C 51.98 36.65 50.79 36.72 50.19 36.75 C 50.09 36.05 49.89 34.64 49.79 33.93 C 47.88 33.89 45.97 33.84 44.07 33.84 C 41.09 30.37 37.67 27.33 34.33 24.23 C 32.31 22.26 30.12 19.80 27.01 20.05 C 22.82 19.80 18.84 23.72 19.43 27.96 C 19.67 30.91 22.25 32.69 24.49 34.19 C 25.31 35.44 26.13 36.68 26.96 37.92 C 25.16 38.87 22.48 39.61 22.25 42.01 C 21.81 47.65 22.16 53.32 22.05 58.96 C 21.89 61.30 22.78 63.47 23.92 65.45 C 23.11 72.65 21.75 79.79 20.83 86.98 C 21.64 87.79 22.44 88.60 23.24 89.42 C 29.59 96.04 36.08 102.53 42.58 109.00 L 0.00 109.00 L 0.00 0.00 Z" />
</g>
<g id="#ffffffff">
<path fill="#ffffff" opacity="1.00" d=" M 19.43 27.96 C 18.84 23.72 22.82 19.80 27.01 20.05 C 30.12 19.80 32.31 22.26 34.33 24.23 C 34.53 26.80 34.73 29.78 32.70 31.74 C 30.71 34.15 27.40 34.45 24.49 34.19 C 22.25 32.69 19.67 30.91 19.43 27.96 Z" />
<path fill="#ffffff" opacity="1.00" d=" M 74.51 28.01 C 73.83 23.36 78.56 19.29 83.06 20.10 C 85.96 20.26 87.88 22.67 89.54 24.75 C 89.62 27.18 89.65 29.97 87.75 31.79 C 85.72 34.19 82.40 34.43 79.49 34.18 C 77.32 32.66 74.79 30.90 74.51 28.01 Z" />
<path fill="#ffffff" opacity="1.00" d=" M 40.84 45.14 C 40.75 41.30 39.17 35.30 44.07 33.84 C 45.97 33.84 47.88 33.89 49.79 33.93 C 49.89 34.64 50.09 36.05 50.19 36.75 C 50.79 36.72 51.98 36.65 52.58 36.61 C 52.60 35.91 52.65 34.49 52.68 33.79 C 55.87 33.98 59.65 33.46 61.89 36.27 C 61.77 40.54 62.01 44.81 61.75 49.06 C 61.79 50.60 60.57 52.24 58.98 52.32 C 55.45 52.75 51.89 52.50 48.35 52.48 C 45.89 50.00 42.78 48.08 40.84 45.14 M 47.29 44.12 C 47.90 44.14 49.12 44.18 49.73 44.20 C 49.68 45.86 49.64 47.52 49.60 49.19 C 50.43 49.18 52.08 49.17 52.91 49.16 C 52.88 47.48 52.87 45.80 52.85 44.12 C 53.47 44.13 54.71 44.15 55.33 44.16 C 53.96 42.63 52.58 41.11 51.19 39.60 C 49.89 41.11 48.59 42.62 47.29 44.12 Z" />
<path fill="#ffffff" opacity="1.00" d=" M 22.25 42.01 C 22.48 39.61 25.16 38.87 26.96 37.92 C 31.45 39.80 34.64 43.62 38.31 46.67 C 40.94 49.10 43.93 51.20 46.13 54.06 C 47.01 56.46 43.49 57.80 41.99 56.17 C 38.38 53.44 35.22 50.18 31.79 47.23 C 31.41 53.22 33.22 59.76 30.20 65.28 C 32.07 72.74 33.99 80.18 35.96 87.61 C 34.52 88.12 33.04 89.63 31.52 88.47 C 29.40 84.31 29.07 79.53 27.68 75.12 C 26.11 79.80 27.68 86.13 23.24 89.42 C 22.44 88.60 21.64 87.79 20.83 86.98 C 21.75 79.79 23.11 72.65 23.92 65.45 C 22.78 63.47 21.89 61.30 22.05 58.96 C 22.16 53.32 21.81 47.65 22.25 42.01 Z" />
<path fill="#ffffff" opacity="1.00" d=" M 71.52 45.94 C 74.85 43.06 77.89 39.68 82.01 37.92 C 83.81 38.86 86.47 39.59 86.75 41.97 C 87.18 47.64 86.84 53.36 86.95 59.05 C 87.13 61.37 86.20 63.51 85.06 65.46 C 85.97 72.86 87.22 80.21 88.33 87.58 C 86.86 88.03 84.57 89.55 83.60 87.53 C 82.36 83.58 82.28 79.38 81.37 75.36 C 79.90 79.69 79.53 84.38 77.48 88.49 C 75.95 89.56 74.49 88.13 73.04 87.64 C 74.99 80.20 76.92 72.76 78.80 65.30 C 75.77 59.77 77.60 53.23 77.20 47.24 C 73.61 50.28 70.38 53.78 66.51 56.49 C 64.95 57.65 62.14 56.19 62.83 54.13 C 65.28 50.96 68.61 48.65 71.52 45.94 Z" />
</g>
<g id="#185c99ff">
<path fill="#185c99" opacity="1.00" d=" M 34.33 24.23 C 37.67 27.33 41.09 30.37 44.07 33.84 C 39.17 35.30 40.75 41.30 40.84 45.14 C 42.78 48.08 45.89 50.00 48.35 52.48 C 51.89 52.50 55.45 52.75 58.98 52.32 C 60.57 52.24 61.79 50.60 61.75 49.06 C 62.01 44.81 61.77 40.54 61.89 36.27 C 65.17 39.42 68.36 42.67 71.52 45.94 C 68.61 48.65 65.28 50.96 62.83 54.13 C 62.14 56.19 64.95 57.65 66.51 56.49 C 70.38 53.78 73.61 50.28 77.20 47.24 C 77.60 53.23 75.77 59.77 78.80 65.30 C 76.92 72.76 74.99 80.20 73.04 87.64 C 74.49 88.13 75.95 89.56 77.48 88.49 C 79.53 84.38 79.90 79.69 81.37 75.36 C 82.28 79.38 82.36 83.58 83.60 87.53 C 84.57 89.55 86.86 88.03 88.33 87.58 C 87.22 80.21 85.97 72.86 85.06 65.46 C 86.20 63.51 87.13 61.37 86.95 59.05 C 86.84 53.36 87.18 47.64 86.75 41.97 C 86.47 39.59 83.81 38.86 82.01 37.92 C 81.17 36.67 80.33 35.43 79.49 34.18 C 82.40 34.43 85.72 34.19 87.75 31.79 C 89.65 29.97 89.62 27.18 89.54 24.75 C 96.60 30.38 102.46 37.31 109.00 43.50 L 109.00 109.00 L 42.58 109.00 C 36.08 102.53 29.59 96.04 23.24 89.42 C 27.68 86.13 26.11 79.80 27.68 75.12 C 29.07 79.53 29.40 84.31 31.52 88.47 C 33.04 89.63 34.52 88.12 35.96 87.61 C 33.99 80.18 32.07 72.74 30.20 65.28 C 33.22 59.76 31.41 53.22 31.79 47.23 C 35.22 50.18 38.38 53.44 41.99 56.17 C 43.49 57.80 47.01 56.46 46.13 54.06 C 43.93 51.20 40.94 49.10 38.31 46.67 C 34.64 43.62 31.45 39.80 26.96 37.92 C 26.13 36.68 25.31 35.44 24.49 34.19 C 27.40 34.45 30.71 34.15 32.70 31.74 C 34.73 29.78 34.53 26.80 34.33 24.23 Z" />
<path fill="#185c99" opacity="1.00" d=" M 47.29 44.12 C 48.59 42.62 49.89 41.11 51.19 39.60 C 52.58 41.11 53.96 42.63 55.33 44.16 C 54.71 44.15 53.47 44.13 52.85 44.12 C 52.87 45.80 52.88 47.48 52.91 49.16 C 52.08 49.17 50.43 49.18 49.60 49.19 C 49.64 47.52 49.68 45.86 49.73 44.20 C 49.12 44.18 47.90 44.14 47.29 44.12 Z" />
</g>
</svg>
