<?xml version="1.0" encoding="UTF-8" ?>
<!DOCTYPE svg PUBLIC "-//W3C//DTD SVG 1.1//EN" "http://www.w3.org/Graphics/SVG/1.1/DTD/svg11.dtd">
<svg width="109pt" height="109pt" viewBox="0 0 109 109" version="1.1" xmlns="http://www.w3.org/2000/svg">
<g id="#1d73bfff">
<path fill="#1d73bf" opacity="1.00" d=" M 0.00 0.00 L 109.00 0.00 L 109.00 66.04 C 100.98 59.06 93.82 51.18 86.19 43.79 C 80.76 38.65 76.02 32.77 69.97 28.32 C 68.23 26.61 66.52 24.88 64.63 23.34 C 64.00 23.35 62.75 23.36 62.13 23.37 C 62.20 22.94 62.34 22.07 62.41 21.64 C 57.26 19.76 51.63 19.98 46.45 21.64 C 46.84 23.19 47.24 24.74 47.65 26.29 C 46.97 25.96 45.61 25.30 44.93 24.97 C 44.74 24.48 44.37 23.50 44.18 23.02 C 41.84 25.38 39.25 27.73 38.09 30.93 C 36.94 33.94 35.66 36.89 33.77 39.51 C 34.88 40.30 35.99 41.08 37.12 41.84 C 37.42 42.58 38.03 44.06 38.34 44.81 C 37.73 44.60 36.52 44.19 35.91 43.99 C 36.67 47.03 37.36 50.19 39.06 52.88 C 40.78 55.43 43.24 57.31 45.47 59.38 C 46.91 60.70 48.29 62.10 49.92 63.20 C 48.34 62.70 46.79 62.11 45.23 61.54 C 45.22 61.81 45.19 62.36 45.17 62.63 C 44.66 62.30 43.63 61.62 43.11 61.28 L 42.64 60.99 C 40.09 62.43 38.63 64.97 38.39 67.86 C 37.89 67.71 36.90 67.40 36.40 67.25 C 36.10 67.17 35.49 67.02 35.19 66.94 C 32.26 71.35 31.32 76.80 32.17 81.99 C 32.62 83.39 34.03 84.17 34.99 85.21 C 42.40 93.33 50.76 100.54 57.79 109.00 L 0.00 109.00 L 0.00 0.00 Z" />
</g>
<g id="#fefefdff">
<path fill="#fefefd" opacity="1.00" d=" M 46.45 21.64 C 51.63 19.98 57.26 19.76 62.41 21.64 C 62.34 22.07 62.20 22.94 62.13 23.37 C 61.10 26.82 60.68 30.62 58.64 33.66 C 55.94 34.28 52.99 34.36 50.33 33.51 C 48.83 31.39 48.48 28.70 47.65 26.29 C 47.24 24.74 46.84 23.19 46.45 21.64 Z" />
<path fill="#fefefd" opacity="1.00" d=" M 38.09 30.93 C 39.25 27.73 41.84 25.38 44.18 23.02 C 44.37 23.50 44.74 24.48 44.93 24.97 C 46.03 28.88 46.43 33.06 48.22 36.75 C 50.64 39.47 54.80 38.50 58.02 38.41 C 59.97 38.31 61.39 36.73 61.81 34.92 C 63.01 31.13 63.72 27.21 64.63 23.34 C 66.52 24.88 68.23 26.61 69.97 28.32 C 71.47 32.20 72.72 36.24 75.34 39.55 C 71.51 41.91 67.60 44.56 63.07 45.28 C 58.06 45.57 53.04 45.38 48.03 45.40 C 44.08 45.51 40.54 43.55 37.12 41.84 C 35.99 41.08 34.88 40.30 33.77 39.51 C 35.66 36.89 36.94 33.94 38.09 30.93 Z" />
<path fill="#fefefd" opacity="1.00" d=" M 35.91 43.99 C 36.52 44.19 37.73 44.60 38.34 44.81 C 41.04 46.16 43.81 47.82 46.96 47.66 C 51.98 47.68 57.00 47.71 62.03 47.65 C 66.02 47.65 69.47 45.37 73.05 43.89 C 72.13 49.86 69.23 55.79 63.77 58.80 C 58.27 62.33 51.30 61.75 45.47 59.38 C 43.24 57.31 40.78 55.43 39.06 52.88 C 37.36 50.19 36.67 47.03 35.91 43.99 Z" />
<path fill="#fefefd" opacity="1.00" d=" M 38.39 67.86 C 38.63 64.97 40.09 62.43 42.64 60.99 L 43.11 61.28 C 42.45 65.68 42.69 70.14 43.42 74.51 C 50.20 78.31 58.81 78.28 65.58 74.49 C 66.40 69.78 66.52 64.98 65.75 60.26 C 67.38 61.92 69.89 63.21 70.14 65.78 C 71.55 72.65 71.18 79.73 70.22 86.64 C 59.98 89.39 49.03 89.42 38.79 86.65 C 37.88 80.42 37.60 74.11 38.39 67.86 Z" />
<path fill="#fefefd" opacity="1.00" d=" M 45.17 62.63 C 45.19 62.36 45.22 61.81 45.23 61.54 C 46.79 62.11 48.34 62.70 49.92 63.20 C 54.63 64.34 59.41 63.05 63.93 61.74 C 64.03 65.40 64.30 69.14 63.42 72.73 C 58.22 76.32 51.26 75.15 45.55 73.40 C 45.05 69.83 44.86 66.22 45.17 62.63 Z" />
<path fill="#fefefd" opacity="1.00" d=" M 35.19 66.94 C 35.49 67.02 36.10 67.17 36.40 67.25 C 35.16 73.54 35.71 79.94 36.28 86.27 L 34.99 85.21 C 34.03 84.17 32.62 83.39 32.17 81.99 C 31.32 76.80 32.26 71.35 35.19 66.94 Z" />
<path fill="#fefefd" opacity="1.00" d=" M 72.57 65.54 C 76.79 70.17 77.76 76.71 76.72 82.69 C 75.52 84.04 74.00 85.04 72.57 86.13 C 73.67 79.30 73.53 72.38 72.57 65.54 Z" />
</g>
<g id="#185c99ff">
<path fill="#185c99" opacity="1.00" d=" M 62.13 23.37 C 62.75 23.36 64.00 23.35 64.63 23.34 C 63.72 27.21 63.01 31.13 61.81 34.92 C 61.39 36.73 59.97 38.31 58.02 38.41 C 54.80 38.50 50.64 39.47 48.22 36.75 C 46.43 33.06 46.03 28.88 44.93 24.97 C 45.61 25.30 46.97 25.96 47.65 26.29 C 48.48 28.70 48.83 31.39 50.33 33.51 C 52.99 34.36 55.94 34.28 58.64 33.66 C 60.68 30.62 61.10 26.82 62.13 23.37 Z" />
<path fill="#185c99" opacity="1.00" d=" M 69.97 28.32 C 76.02 32.77 80.76 38.65 86.19 43.79 C 93.82 51.18 100.98 59.06 109.00 66.04 L 109.00 109.00 L 57.79 109.00 C 50.76 100.54 42.40 93.33 34.99 85.21 L 36.28 86.27 C 35.71 79.94 35.16 73.54 36.40 67.25 C 36.90 67.40 37.89 67.71 38.39 67.86 C 37.60 74.11 37.88 80.42 38.79 86.65 C 49.03 89.42 59.98 89.39 70.22 86.64 C 71.18 79.73 71.55 72.65 70.14 65.78 C 69.89 63.21 67.38 61.92 65.75 60.26 C 66.52 64.98 66.40 69.78 65.58 74.49 C 58.81 78.28 50.20 78.31 43.42 74.51 C 42.69 70.14 42.45 65.68 43.11 61.28 C 43.63 61.62 44.66 62.30 45.17 62.63 C 44.86 66.22 45.05 69.83 45.55 73.40 C 51.26 75.15 58.22 76.32 63.42 72.73 C 64.30 69.14 64.03 65.40 63.93 61.74 C 59.41 63.05 54.63 64.34 49.92 63.20 C 48.29 62.10 46.91 60.70 45.47 59.38 C 51.30 61.75 58.27 62.33 63.77 58.80 C 69.23 55.79 72.13 49.86 73.05 43.89 C 69.47 45.37 66.02 47.65 62.03 47.65 C 57.00 47.71 51.98 47.68 46.96 47.66 C 43.81 47.82 41.04 46.16 38.34 44.81 C 38.03 44.06 37.42 42.58 37.12 41.84 C 40.54 43.55 44.08 45.51 48.03 45.40 C 53.04 45.38 58.06 45.57 63.07 45.28 C 67.60 44.56 71.51 41.91 75.34 39.55 C 72.72 36.24 71.47 32.20 69.97 28.32 M 72.57 65.54 C 73.53 72.38 73.67 79.30 72.57 86.13 C 74.00 85.04 75.52 84.04 76.72 82.69 C 77.76 76.71 76.79 70.17 72.57 65.54 Z" />
</g>
</svg>
