<?xml version="1.0" encoding="UTF-8" ?>
<!DOCTYPE svg PUBLIC "-//W3C//DTD SVG 1.1//EN" "http://www.w3.org/Graphics/SVG/1.1/DTD/svg11.dtd">
<svg width="109pt" height="109pt" viewBox="0 0 109 109" version="1.1" xmlns="http://www.w3.org/2000/svg">
<g id="#1d73beff">
<path fill="#1d73be" opacity="1.00" d=" M 0.00 0.00 L 109.00 0.00 L 109.00 56.23 C 102.93 50.62 97.79 43.92 90.91 39.25 C 89.52 37.19 88.07 35.02 85.74 33.93 C 80.48 30.99 76.98 25.92 72.37 22.16 C 71.25 20.94 69.84 19.86 68.08 20.10 C 50.04 20.10 32.00 20.04 13.96 20.13 C 11.75 19.83 9.82 21.74 10.07 23.95 C 10.04 40.99 10.03 58.05 10.08 75.09 C 9.85 76.82 11.36 77.83 12.43 78.90 C 22.23 89.09 32.42 98.90 42.32 109.00 L 0.00 109.00 L 0.00 0.00 Z" />
</g>
<g id="#ffffffff">
<path fill="#ffffff" opacity="1.00" d=" M 10.07 23.95 C 9.82 21.74 11.75 19.83 13.96 20.13 C 32.00 20.04 50.04 20.10 68.08 20.10 C 69.84 19.86 71.25 20.94 72.37 22.16 C 72.44 26.04 72.35 29.93 72.34 33.81 C 76.81 33.89 81.28 33.70 85.74 33.93 C 88.07 35.02 89.52 37.19 90.91 39.25 C 93.55 44.99 97.57 50.07 99.72 56.02 C 100.21 62.66 99.93 69.37 99.89 76.04 C 99.63 79.26 95.75 78.83 93.43 78.95 C 92.48 76.07 91.36 73.04 88.87 71.13 C 84.52 67.41 77.51 67.39 73.19 71.16 C 70.75 73.06 69.67 76.05 68.64 78.85 C 60.74 78.81 52.83 78.85 44.92 78.83 C 43.66 73.28 38.99 68.27 33.01 68.34 C 26.75 67.87 21.49 72.97 20.23 78.84 C 17.63 78.84 15.03 78.90 12.43 78.90 C 11.36 77.83 9.85 76.82 10.08 75.09 C 10.03 58.05 10.04 40.99 10.07 23.95 M 16.77 40.54 C 16.90 46.45 16.81 52.36 16.83 58.27 C 17.62 58.26 19.20 58.24 20.00 58.23 C 19.93 55.73 19.90 53.24 19.90 50.74 C 22.17 50.74 24.44 50.71 26.71 50.69 C 26.61 49.69 26.53 48.69 26.47 47.69 C 24.28 47.75 22.09 47.77 19.90 47.78 C 19.93 46.32 19.97 44.85 20.01 43.39 C 22.53 43.43 25.06 43.44 27.58 43.46 C 27.58 42.47 27.61 41.48 27.67 40.49 C 24.04 40.44 20.40 40.42 16.77 40.54 M 30.65 40.51 C 30.75 46.43 30.70 52.34 30.68 58.26 C 31.46 58.25 33.03 58.24 33.82 58.24 C 33.77 55.88 33.74 53.53 33.73 51.17 C 35.38 51.19 37.03 51.20 38.69 51.22 C 39.57 53.44 39.69 55.84 39.88 58.19 C 40.75 58.23 42.50 58.32 43.37 58.37 C 42.39 55.50 42.60 52.32 41.12 49.62 C 43.25 47.33 43.58 43.08 40.62 41.33 C 37.57 39.72 33.95 40.68 30.65 40.51 M 44.63 40.50 C 44.80 46.42 44.54 52.34 44.81 58.26 C 48.30 58.26 51.78 58.26 55.26 58.25 C 55.22 57.50 55.12 55.99 55.08 55.23 C 52.63 55.31 50.18 55.32 47.73 55.31 C 47.73 53.78 47.73 52.26 47.74 50.73 C 50.01 50.74 52.31 50.87 54.57 50.51 C 54.57 49.82 54.57 48.43 54.57 47.74 C 52.32 47.75 50.07 47.77 47.82 47.82 C 47.76 46.38 47.71 44.94 47.65 43.50 C 50.17 43.43 52.69 43.42 55.22 43.42 C 55.19 42.73 55.12 41.35 55.09 40.66 C 51.63 40.18 48.12 40.55 44.63 40.50 M 58.49 40.51 C 58.61 46.42 58.56 52.34 58.52 58.25 C 62.10 58.25 65.67 58.25 69.24 58.26 C 69.19 57.51 69.10 55.99 69.05 55.24 C 66.55 55.31 64.06 55.32 61.56 55.31 C 61.56 53.79 61.57 52.27 61.56 50.75 C 63.94 50.74 66.32 50.71 68.69 50.69 C 68.59 49.69 68.51 48.70 68.45 47.70 C 66.13 47.78 63.81 47.78 61.49 47.66 C 61.51 46.61 61.55 44.52 61.56 43.47 C 64.12 43.43 66.67 43.42 69.23 43.42 C 69.19 42.72 69.12 41.33 69.09 40.63 C 65.57 40.22 62.02 40.53 58.49 40.51 M 75.76 40.79 C 75.77 46.57 75.77 52.35 75.76 58.13 C 82.01 58.13 88.25 58.15 94.50 58.12 C 91.46 52.33 88.37 46.55 85.12 40.87 C 82.00 40.80 78.88 40.79 75.76 40.79 Z" />
<path fill="#ffffff" opacity="1.00" d=" M 33.68 43.47 C 35.85 43.54 39.81 42.54 39.78 45.86 C 39.71 48.92 35.78 48.07 33.76 48.28 C 33.74 46.67 33.71 45.07 33.68 43.47 Z" />
<path fill="#ffffff" opacity="1.00" d=" M 29.49 72.54 C 36.03 69.52 43.78 77.30 40.64 83.81 C 38.47 89.98 28.95 90.98 25.48 85.50 C 22.14 81.18 24.43 74.33 29.49 72.54 Z" />
<path fill="#ffffff" opacity="1.00" d=" M 79.07 72.19 C 82.95 71.13 87.31 73.43 88.92 77.06 C 90.35 79.89 89.81 83.46 87.85 85.91 C 84.26 90.87 75.21 89.89 73.11 83.97 C 70.83 79.30 74.07 73.27 79.07 72.19 Z" />
</g>
<g id="#185c99ff">
<path fill="#185c99" opacity="1.00" d=" M 72.37 22.16 C 76.98 25.92 80.48 30.99 85.74 33.93 C 81.28 33.70 76.81 33.89 72.34 33.81 C 72.35 29.93 72.44 26.04 72.37 22.16 Z" />
<path fill="#185c99" opacity="1.00" d=" M 16.77 40.54 C 20.40 40.42 24.04 40.44 27.67 40.49 C 27.61 41.48 27.58 42.47 27.58 43.46 C 25.06 43.44 22.53 43.43 20.01 43.39 C 19.97 44.85 19.93 46.32 19.90 47.78 C 22.09 47.77 24.28 47.75 26.47 47.69 C 26.53 48.69 26.61 49.69 26.71 50.69 C 24.44 50.71 22.17 50.74 19.90 50.74 C 19.90 53.24 19.93 55.73 20.00 58.23 C 19.20 58.24 17.62 58.26 16.83 58.27 C 16.81 52.36 16.90 46.45 16.77 40.54 Z" />
<path fill="#185c99" opacity="1.00" d=" M 30.65 40.51 C 33.95 40.68 37.57 39.72 40.62 41.33 C 43.58 43.08 43.25 47.33 41.12 49.62 C 42.60 52.32 42.39 55.50 43.37 58.37 C 42.50 58.32 40.75 58.23 39.88 58.19 C 39.69 55.84 39.57 53.44 38.69 51.22 C 37.03 51.20 35.38 51.19 33.73 51.17 C 33.74 53.53 33.77 55.88 33.82 58.24 C 33.03 58.24 31.46 58.25 30.68 58.26 C 30.70 52.34 30.75 46.43 30.65 40.51 M 33.68 43.47 C 33.71 45.07 33.74 46.67 33.76 48.28 C 35.78 48.07 39.71 48.92 39.78 45.86 C 39.81 42.54 35.85 43.54 33.68 43.47 Z" />
<path fill="#185c99" opacity="1.00" d=" M 44.63 40.50 C 48.12 40.55 51.63 40.18 55.09 40.66 C 55.12 41.35 55.19 42.73 55.22 43.42 C 52.69 43.42 50.17 43.43 47.65 43.50 C 47.71 44.94 47.76 46.38 47.82 47.82 C 50.07 47.77 52.32 47.75 54.57 47.74 C 54.57 48.43 54.57 49.82 54.57 50.51 C 52.31 50.87 50.01 50.74 47.74 50.73 C 47.73 52.26 47.73 53.78 47.73 55.31 C 50.18 55.32 52.63 55.31 55.08 55.23 C 55.12 55.99 55.22 57.50 55.26 58.25 C 51.78 58.26 48.30 58.26 44.81 58.26 C 44.54 52.34 44.80 46.42 44.63 40.50 Z" />
<path fill="#185c99" opacity="1.00" d=" M 58.49 40.51 C 62.02 40.53 65.57 40.22 69.09 40.63 C 69.12 41.33 69.19 42.72 69.23 43.42 C 66.67 43.42 64.12 43.43 61.56 43.47 C 61.55 44.52 61.51 46.61 61.49 47.66 C 63.81 47.78 66.13 47.78 68.45 47.70 C 68.51 48.70 68.59 49.69 68.69 50.69 C 66.32 50.71 63.94 50.74 61.56 50.75 C 61.57 52.27 61.56 53.79 61.56 55.31 C 64.06 55.32 66.55 55.31 69.05 55.24 C 69.10 55.99 69.19 57.51 69.24 58.26 C 65.67 58.25 62.10 58.25 58.52 58.25 C 58.56 52.34 58.61 46.42 58.49 40.51 Z" />
<path fill="#185c99" opacity="1.00" d=" M 90.91 39.25 C 97.79 43.92 102.93 50.62 109.00 56.23 L 109.00 109.00 L 42.32 109.00 C 32.42 98.90 22.23 89.09 12.43 78.90 C 15.03 78.90 17.63 78.84 20.23 78.84 C 21.49 72.97 26.75 67.87 33.01 68.34 C 38.99 68.27 43.66 73.28 44.92 78.83 C 52.83 78.85 60.74 78.81 68.64 78.85 C 69.67 76.05 70.75 73.06 73.19 71.16 C 77.51 67.39 84.52 67.41 88.87 71.13 C 91.36 73.04 92.48 76.07 93.43 78.95 C 95.75 78.83 99.63 79.26 99.89 76.04 C 99.93 69.37 100.21 62.66 99.72 56.02 C 97.57 50.07 93.55 44.99 90.91 39.25 M 29.49 72.54 C 24.43 74.33 22.14 81.18 25.48 85.50 C 28.95 90.98 38.47 89.98 40.64 83.81 C 43.78 77.30 36.03 69.52 29.49 72.54 M 79.07 72.19 C 74.07 73.27 70.83 79.30 73.11 83.97 C 75.21 89.89 84.26 90.87 87.85 85.91 C 89.81 83.46 90.35 79.89 88.92 77.06 C 87.31 73.43 82.95 71.13 79.07 72.19 Z" />
<path fill="#185c99" opacity="1.00" d=" M 75.76 40.79 C 78.88 40.79 82.00 40.80 85.12 40.87 C 88.37 46.55 91.46 52.33 94.50 58.12 C 88.25 58.15 82.01 58.13 75.76 58.13 C 75.77 52.35 75.77 46.57 75.76 40.79 Z" />
</g>
</svg>
