<?xml version="1.0" encoding="UTF-8" ?>
<!DOCTYPE svg PUBLIC "-//W3C//DTD SVG 1.1//EN" "http://www.w3.org/Graphics/SVG/1.1/DTD/svg11.dtd">
<svg width="109pt" height="109pt" viewBox="0 0 109 109" version="1.1" xmlns="http://www.w3.org/2000/svg">
<g id="#1d73beff">
<path fill="#1d73be" opacity="1.00" d=" M 0.00 0.00 L 109.00 0.00 L 109.00 49.48 C 102.29 43.06 95.95 36.27 89.21 29.88 C 87.75 28.57 85.93 27.83 84.01 27.54 C 72.64 25.35 61.29 23.04 49.94 20.77 C 48.02 20.38 45.04 19.83 44.52 22.45 C 40.30 33.66 36.26 44.95 32.19 56.21 C 30.95 58.19 32.60 59.84 33.98 61.09 C 36.02 63.03 37.75 65.26 39.18 67.69 C 33.05 65.30 26.96 62.79 20.85 60.35 C 20.44 64.03 20.01 67.99 21.82 71.40 C 23.25 74.48 26.25 76.35 29.20 77.79 L 27.76 77.77 C 37.47 88.64 48.38 98.40 58.40 109.00 L 0.00 109.00 L 0.00 0.00 Z" />
</g>
<g id="#fffffeff">
<path fill="#fffffe" opacity="1.00" d=" M 44.52 22.45 C 45.04 19.83 48.02 20.38 49.94 20.77 C 61.29 23.04 72.64 25.35 84.01 27.54 C 85.93 27.83 87.75 28.57 89.21 29.88 C 85.52 42.63 81.02 55.13 76.50 67.61 C 74.23 73.33 72.33 79.44 68.25 84.19 C 64.02 89.23 56.32 89.95 50.55 87.36 C 43.40 84.25 36.41 80.76 29.20 77.79 C 26.25 76.35 23.25 74.48 21.82 71.40 C 20.01 67.99 20.44 64.03 20.85 60.35 C 26.96 62.79 33.05 65.30 39.18 67.69 C 43.17 69.34 47.17 70.97 51.16 72.63 C 51.40 75.46 51.24 78.61 53.09 80.99 C 55.40 84.33 60.68 84.08 63.47 81.49 C 66.18 78.90 67.66 75.35 69.11 71.97 C 74.28 59.10 78.45 45.86 82.98 32.77 C 71.68 30.62 60.43 28.16 49.10 26.12 C 44.36 36.76 41.17 48.11 36.72 58.89 C 36.22 60.02 34.88 60.37 33.98 61.09 C 32.60 59.84 30.95 58.19 32.19 56.21 C 36.26 44.95 40.30 33.66 44.52 22.45 Z" />
<path fill="#fffffe" opacity="1.00" d=" M 50.27 35.40 C 52.09 34.29 55.12 35.66 54.81 37.95 C 54.60 40.36 51.00 41.32 49.68 39.21 C 48.49 38.07 49.08 36.27 50.27 35.40 Z" />
<path fill="#fffffe" opacity="1.00" d=" M 58.15 37.99 C 58.60 37.86 59.49 37.59 59.94 37.45 C 64.29 38.47 68.65 39.58 72.88 41.04 C 75.08 42.07 74.31 45.59 71.97 45.84 C 67.72 45.29 63.63 43.85 59.52 42.67 C 57.28 42.42 56.51 39.46 58.15 37.99 Z" />
<path fill="#fffffe" opacity="1.00" d=" M 44.93 47.99 C 45.60 45.46 49.43 45.18 50.39 47.65 C 51.58 49.48 49.17 50.86 48.02 51.85 C 46.69 50.82 44.30 50.17 44.93 47.99 Z" />
<path fill="#fffffe" opacity="1.00" d=" M 53.23 49.20 C 53.68 48.99 54.57 48.56 55.02 48.34 C 59.55 49.43 64.01 50.94 68.34 52.68 C 70.52 53.85 69.35 57.38 66.99 57.43 C 62.69 56.44 58.53 54.89 54.38 53.40 C 52.57 52.91 52.05 50.58 53.23 49.20 Z" />
<path fill="#fffffe" opacity="1.00" d=" M 42.36 56.40 C 44.81 55.20 48.10 58.59 45.67 60.62 C 43.00 64.03 37.98 57.93 42.36 56.40 Z" />
<path fill="#fffffe" opacity="1.00" d=" M 50.15 59.13 C 54.80 59.72 59.28 61.66 63.68 63.27 C 66.59 64.25 64.76 68.82 62.09 68.05 C 58.00 66.94 53.97 65.57 50.00 64.10 C 47.47 63.39 47.83 59.86 50.15 59.13 Z" />
</g>
<g id="#185c99ff">
<path fill="#185c99" opacity="1.00" d=" M 49.10 26.12 C 60.43 28.16 71.68 30.62 82.98 32.77 C 78.45 45.86 74.28 59.10 69.11 71.97 C 67.66 75.35 66.18 78.90 63.47 81.49 C 60.68 84.08 55.40 84.33 53.09 80.99 C 51.24 78.61 51.40 75.46 51.16 72.63 C 47.17 70.97 43.17 69.34 39.18 67.69 C 37.75 65.26 36.02 63.03 33.98 61.09 C 34.88 60.37 36.22 60.02 36.72 58.89 C 41.17 48.11 44.36 36.76 49.10 26.12 M 50.27 35.40 C 49.08 36.27 48.49 38.07 49.68 39.21 C 51.00 41.32 54.60 40.36 54.81 37.95 C 55.12 35.66 52.09 34.29 50.27 35.40 M 58.15 37.99 C 56.51 39.46 57.28 42.42 59.52 42.67 C 63.63 43.85 67.72 45.29 71.97 45.84 C 74.31 45.59 75.08 42.07 72.88 41.04 C 68.65 39.58 64.29 38.47 59.94 37.45 C 59.49 37.59 58.60 37.86 58.15 37.99 M 44.93 47.99 C 44.30 50.17 46.69 50.82 48.02 51.85 C 49.17 50.86 51.58 49.48 50.39 47.65 C 49.43 45.18 45.60 45.46 44.93 47.99 M 53.23 49.20 C 52.05 50.58 52.57 52.91 54.38 53.40 C 58.53 54.89 62.69 56.44 66.99 57.43 C 69.35 57.38 70.52 53.85 68.34 52.68 C 64.01 50.94 59.55 49.43 55.02 48.34 C 54.57 48.56 53.68 48.99 53.23 49.20 M 42.36 56.40 C 37.98 57.93 43.00 64.03 45.67 60.62 C 48.10 58.59 44.81 55.20 42.36 56.40 M 50.15 59.13 C 47.83 59.86 47.47 63.39 50.00 64.10 C 53.97 65.57 58.00 66.94 62.09 68.05 C 64.76 68.82 66.59 64.25 63.68 63.27 C 59.28 61.66 54.80 59.72 50.15 59.13 Z" />
<path fill="#185c99" opacity="1.00" d=" M 89.21 29.88 C 95.95 36.27 102.29 43.06 109.00 49.48 L 109.00 109.00 L 58.40 109.00 C 48.38 98.40 37.47 88.64 27.76 77.77 L 29.20 77.79 C 36.41 80.76 43.40 84.25 50.55 87.36 C 56.32 89.95 64.02 89.23 68.25 84.19 C 72.33 79.44 74.23 73.33 76.50 67.61 C 81.02 55.13 85.52 42.63 89.21 29.88 Z" />
</g>
</svg>
