<?xml version="1.0" encoding="UTF-8" ?>
<!DOCTYPE svg PUBLIC "-//W3C//DTD SVG 1.1//EN" "http://www.w3.org/Graphics/SVG/1.1/DTD/svg11.dtd">
<svg width="80pt" height="80pt" viewBox="0 0 80 80" version="1.1" xmlns="http://www.w3.org/2000/svg">
<g id="#ffffffff">
</g>
<g id="#1e73bfff">
<path fill="#1e73bf" opacity="1.00" d=" M 26.09 12.10 C 36.09 12.21 46.08 12.13 56.08 12.13 C 57.17 12.08 58.15 12.39 59.03 13.06 C 58.74 25.02 58.76 36.99 59.01 48.95 C 58.47 49.29 57.39 49.98 56.85 50.32 C 56.80 38.32 57.04 26.30 56.74 14.31 C 46.81 14.15 36.88 14.31 26.95 14.22 C 26.77 18.23 26.81 22.24 26.98 26.24 C 23.07 26.54 19.14 26.36 15.22 26.42 C 14.95 40.54 15.08 54.68 15.15 68.80 C 29.03 68.89 42.92 68.96 56.81 68.77 C 56.95 65.90 56.79 63.02 56.86 60.15 C 57.39 59.97 58.46 59.62 58.99 59.45 C 58.83 62.97 58.75 66.51 59.03 70.03 C 57.57 71.13 55.70 70.84 54.01 70.88 C 40.74 70.77 27.46 70.95 14.20 70.80 C 13.91 70.57 13.34 70.12 13.06 69.89 C 12.92 55.07 12.99 40.24 13.03 25.42 C 17.59 21.18 21.54 16.33 26.09 12.10 Z" />
<path fill="#1e73bf" opacity="1.00" d=" M 41.67 25.13 C 45.01 24.37 48.56 24.31 51.93 24.93 L 52.16 26.26 C 48.74 25.97 44.44 27.67 41.67 25.13 Z" />
<path fill="#1e73bf" opacity="1.00" d=" M 29.64 29.99 C 37.19 29.57 44.79 29.67 52.34 29.94 C 52.12 30.31 51.67 31.05 51.45 31.42 C 45.65 31.88 39.80 31.45 33.98 31.63 C 32.38 31.53 30.17 32.07 29.64 29.99 Z" />
<path fill="#1e73bf" opacity="1.00" d=" M 19.99 34.98 C 30.66 34.92 41.34 34.91 52.01 34.97 C 52.01 35.47 52.00 36.48 52.00 36.98 C 41.33 37.04 30.66 37.00 20.00 37.01 C 19.99 36.50 19.99 35.48 19.99 34.98 Z" />
<path fill="#1e73bf" opacity="1.00" d=" M 20.28 40.26 C 30.71 40.06 41.17 40.07 51.60 40.25 C 51.76 40.70 52.08 41.59 52.23 42.03 C 41.42 42.20 30.60 42.18 19.79 42.04 C 19.91 41.59 20.16 40.71 20.28 40.26 Z" />
<path fill="#1e73bf" opacity="1.00" d=" M 19.73 45.98 C 26.41 45.79 33.10 45.80 39.78 45.98 C 39.55 46.42 39.08 47.30 38.84 47.74 C 32.71 47.92 26.54 48.00 20.41 47.69 C 20.24 47.26 19.90 46.41 19.73 45.98 Z" />
<path fill="#1e73bf" opacity="1.00" d=" M 50.11 52.06 C 53.67 52.22 57.25 51.62 60.61 50.43 C 60.97 52.64 61.69 54.77 62.30 56.92 C 53.14 58.98 43.92 60.75 34.79 62.92 C 33.69 62.83 32.59 62.73 31.49 62.63 C 31.61 61.21 31.13 60.16 30.07 59.48 C 30.12 60.46 30.22 62.42 30.28 63.40 C 28.30 63.21 26.32 63.04 24.34 62.85 C 26.32 60.91 28.74 59.38 31.53 59.03 C 31.24 61.00 31.96 62.24 33.70 62.75 C 33.23 61.20 32.87 59.62 32.63 58.01 L 33.77 58.01 C 33.69 58.55 33.53 59.64 33.45 60.18 C 42.55 58.06 51.86 56.63 60.83 54.13 C 61.76 50.13 57.48 51.70 55.25 52.23 C 50.92 52.76 46.53 53.19 42.51 55.01 C 42.29 54.88 41.85 54.60 41.63 54.47 C 44.42 53.58 47.08 51.87 50.11 52.06 Z" />
<path fill="#1e73bf" opacity="1.00" d=" M 20.00 50.99 C 22.34 50.98 24.68 50.98 27.02 50.99 C 27.01 51.50 27.00 52.51 27.00 53.02 C 24.66 53.04 22.33 53.05 19.99 53.03 C 19.99 52.52 20.00 51.50 20.00 50.99 Z" />
<path fill="#1e73bf" opacity="1.00" d=" M 63.10 52.23 C 65.19 51.72 68.73 51.62 68.02 54.78 C 66.71 55.35 65.35 55.78 64.00 56.22 C 63.43 54.96 62.89 53.65 63.10 52.23 Z" />
</g>
<g id="#adcce8ff">
<path fill="#adcce8" opacity="1.00" d=" M 55.25 52.23 C 57.48 51.70 61.76 50.13 60.83 54.13 C 51.86 56.63 42.55 58.06 33.45 60.18 C 33.53 59.64 33.69 58.55 33.77 58.01 C 36.23 56.48 40.42 57.65 41.62 54.46 L 41.63 54.47 C 41.85 54.60 42.29 54.88 42.51 55.01 C 43.81 56.27 45.59 55.31 47.08 55.16 C 49.89 54.45 53.02 54.31 55.25 52.23 Z" />
</g>
</svg>
