<?xml version="1.0" encoding="UTF-8" ?>
<!DOCTYPE svg PUBLIC "-//W3C//DTD SVG 1.1//EN" "http://www.w3.org/Graphics/SVG/1.1/DTD/svg11.dtd">
<svg width="80pt" height="80pt" viewBox="0 0 80 80" version="1.1" xmlns="http://www.w3.org/2000/svg">
<g id="#ffffffff">
<path fill="#ffffff" opacity="1.00" d=" M 0.00 0.00 L 80.00 0.00 L 80.00 80.00 L 0.00 80.00 L 0.00 0.00 M 40.75 13.73 C 36.40 16.34 38.09 22.48 34.82 25.87 C 32.48 28.69 30.18 31.54 27.81 34.33 C 24.57 34.36 21.33 34.25 18.10 34.42 C 15.77 34.38 14.05 36.78 14.27 38.98 C 14.26 45.68 14.28 52.38 14.26 59.08 C 14.08 61.04 15.34 63.07 17.26 63.61 C 21.64 64.32 26.19 63.11 30.50 64.44 C 35.21 65.97 39.91 67.89 44.94 67.93 C 49.35 68.00 54.69 68.65 57.99 65.02 C 60.06 63.13 59.98 60.19 60.91 57.74 C 62.42 54.33 62.63 50.56 63.33 46.94 C 63.10 42.71 66.55 38.35 63.76 34.36 C 61.23 29.51 55.29 29.88 50.66 30.19 C 52.66 25.75 53.18 19.91 49.92 15.93 C 47.65 13.60 43.82 12.59 40.75 13.73 Z" />
<path fill="#ffffff" opacity="1.00" d=" M 40.20 25.28 C 41.06 22.54 41.46 19.65 42.77 17.06 C 44.60 17.70 47.16 18.00 47.58 20.32 C 49.19 25.28 45.72 29.71 44.55 34.32 C 49.09 34.59 53.72 33.88 58.22 34.70 C 61.65 36.29 61.06 40.87 58.51 42.99 C 59.79 45.36 59.38 47.91 57.90 50.06 C 58.30 51.87 58.37 53.71 57.18 55.25 C 55.46 57.58 56.87 61.31 54.00 62.91 C 50.94 64.34 47.37 63.84 44.09 63.69 C 38.10 63.28 32.80 60.03 26.86 59.39 C 26.87 52.54 26.86 45.68 26.86 38.83 C 30.71 38.29 32.92 34.90 35.15 32.11 C 36.87 29.86 38.98 27.86 40.20 25.28 Z" />
<path fill="#ffffff" opacity="1.00" d=" M 18.05 57.15 C 19.08 56.35 20.43 54.36 21.83 55.76 C 23.71 56.80 22.65 59.09 21.03 59.72 C 19.44 59.72 18.73 58.33 18.05 57.15 Z" />
</g>
<g id="#1e73bfff">
<path fill="#1e73bf" opacity="1.00" d=" M 40.75 13.73 C 43.82 12.59 47.65 13.60 49.92 15.93 C 53.18 19.91 52.66 25.75 50.66 30.19 C 55.29 29.88 61.23 29.51 63.76 34.36 C 66.55 38.35 63.10 42.71 63.33 46.94 C 62.63 50.56 62.42 54.33 60.91 57.74 C 59.98 60.19 60.06 63.13 57.99 65.02 C 54.69 68.65 49.35 68.00 44.94 67.93 C 39.91 67.89 35.21 65.97 30.50 64.44 C 26.19 63.11 21.64 64.32 17.26 63.61 C 15.34 63.07 14.08 61.04 14.26 59.08 C 14.28 52.38 14.26 45.68 14.27 38.98 C 14.05 36.78 15.77 34.38 18.10 34.42 C 21.33 34.25 24.57 34.36 27.81 34.33 C 30.18 31.54 32.48 28.69 34.82 25.87 C 38.09 22.48 36.40 16.34 40.75 13.73 M 40.20 25.28 C 38.98 27.86 36.87 29.86 35.15 32.11 C 32.92 34.90 30.71 38.29 26.86 38.83 C 26.86 45.68 26.87 52.54 26.86 59.39 C 32.80 60.03 38.10 63.28 44.09 63.69 C 47.37 63.84 50.94 64.34 54.00 62.91 C 56.87 61.31 55.46 57.58 57.18 55.25 C 58.37 53.71 58.30 51.87 57.90 50.06 C 59.38 47.91 59.79 45.36 58.51 42.99 C 61.06 40.87 61.65 36.29 58.22 34.70 C 53.72 33.88 49.09 34.59 44.55 34.32 C 45.72 29.71 49.19 25.28 47.58 20.32 C 47.16 18.00 44.60 17.70 42.77 17.06 C 41.46 19.65 41.06 22.54 40.20 25.28 M 18.05 57.15 C 18.73 58.33 19.44 59.72 21.03 59.72 C 22.65 59.09 23.71 56.80 21.83 55.76 C 20.43 54.36 19.08 56.35 18.05 57.15 Z" />
</g>
</svg>
