<?xml version="1.0" encoding="UTF-8" ?>
<!DOCTYPE svg PUBLIC "-//W3C//DTD SVG 1.1//EN" "http://www.w3.org/Graphics/SVG/1.1/DTD/svg11.dtd">
<svg width="35pt" height="35pt" viewBox="0 0 35 35" version="1.1" xmlns="http://www.w3.org/2000/svg">
<g id="#fefffeff">
<path fill="#fefffe" opacity="1.00" d=" M 10.53 9.79 C 10.74 8.28 9.66 5.67 11.96 5.34 C 15.65 4.84 20.07 4.27 23.07 7.02 C 25.63 9.61 25.23 14.15 22.56 16.51 C 26.21 18.64 26.07 24.47 22.85 26.89 C 19.08 29.26 14.31 28.91 10.19 27.73 C 10.20 26.44 10.21 25.15 10.22 23.86 C 12.83 24.34 15.70 25.84 18.23 24.29 C 19.94 23.52 20.62 21.00 19.21 19.61 C 17.62 17.90 15.13 18.73 13.09 18.59 C 13.09 17.39 13.09 16.20 13.09 15.00 C 14.32 15.01 15.54 15.03 16.76 15.06 C 18.32 14.06 20.45 12.12 19.06 10.16 C 17.10 7.17 13.20 9.15 10.53 9.79 Z" />
</g>
<g id="#1e73bfff">
</g>
</svg>
