<?xml version="1.0" encoding="UTF-8" ?>
<!DOCTYPE svg PUBLIC "-//W3C//DTD SVG 1.1//EN" "http://www.w3.org/Graphics/SVG/1.1/DTD/svg11.dtd">
<svg width="35pt" height="35pt" viewBox="0 0 35 35" version="1.1" xmlns="http://www.w3.org/2000/svg">
<g id="#fefffeff">
<path fill="#fefffe" opacity="1.00" d=" M 10.05 8.36 C 14.11 6.95 18.83 6.16 22.90 7.92 C 26.50 9.63 26.85 14.75 24.47 17.61 C 23.03 19.35 21.15 20.66 19.36 22.01 C 22.09 21.96 24.81 22.00 27.54 22.06 C 27.52 23.56 27.50 25.06 27.49 26.57 C 21.53 26.53 15.56 26.64 9.60 26.51 C 9.61 25.65 9.64 23.93 9.65 23.07 C 13.01 20.66 16.87 18.63 19.31 15.19 C 20.40 13.93 19.70 11.93 18.05 11.62 C 15.37 11.32 12.74 12.06 10.20 12.83 C 10.06 11.35 10.01 9.85 10.05 8.36 Z" />
</g>
<g id="#1e73bfff">
</g>
</svg>
