<?xml version="1.0" encoding="UTF-8" ?>
<!DOCTYPE svg PUBLIC "-//W3C//DTD SVG 1.1//EN" "http://www.w3.org/Graphics/SVG/1.1/DTD/svg11.dtd">
<svg width="35pt" height="35pt" viewBox="0 0 35 35" version="1.1" xmlns="http://www.w3.org/2000/svg">
<g id="#fefffeff">
<path fill="#fefffe" opacity="1.00" d=" M 12.78 5.01 C 17.04 5.00 21.31 4.99 25.57 5.01 C 25.57 6.20 25.58 7.40 25.59 8.59 C 22.86 8.58 20.13 8.56 17.40 8.54 C 17.18 10.32 16.93 12.10 16.66 13.88 C 18.98 14.06 21.51 14.13 23.41 15.66 C 26.84 18.64 26.25 25.04 22.19 27.18 C 18.63 29.24 14.26 28.85 10.45 27.75 C 10.43 26.46 10.42 25.18 10.40 23.89 C 13.14 24.41 16.32 25.93 18.85 23.96 C 20.83 22.84 20.70 19.43 18.70 18.39 C 16.35 16.94 13.53 17.70 10.99 18.01 C 11.52 13.66 12.23 9.35 12.78 5.01 Z" />
</g>
<g id="#1e73bfff">
</g>
</svg>
