<?xml version="1.0" encoding="UTF-8" ?>
<!DOCTYPE svg PUBLIC "-//W3C//DTD SVG 1.1//EN" "http://www.w3.org/Graphics/SVG/1.1/DTD/svg11.dtd">
<svg width="35pt" height="35pt" viewBox="0 0 35 35" version="1.1" xmlns="http://www.w3.org/2000/svg">
<g id="#ffffffff">
<path fill="#ffffff" opacity="1.00" d=" M 9.60 9.71 C 13.65 8.19 17.76 6.42 22.21 6.98 C 22.20 11.98 22.21 16.99 22.20 21.99 C 24.03 22.01 25.86 21.99 27.69 22.02 C 27.69 23.54 27.69 25.06 27.71 26.58 C 21.83 26.55 15.96 26.55 10.09 26.59 C 10.11 25.06 10.11 23.53 10.09 22.01 C 12.17 22.00 14.24 22.00 16.32 21.99 C 16.27 18.91 16.35 15.82 16.33 12.73 C 14.18 13.55 11.90 13.79 9.65 14.16 C 9.65 12.68 9.63 11.19 9.60 9.71 Z" />
</g>
<g id="#1e73bfff">
</g>
</svg>
