<?xml version="1.0" encoding="UTF-8" ?>
<!DOCTYPE svg PUBLIC "-//W3C//DTD SVG 1.1//EN" "http://www.w3.org/Graphics/SVG/1.1/DTD/svg11.dtd">
<svg width="35pt" height="35pt" viewBox="0 0 35 35" version="1.1" xmlns="http://www.w3.org/2000/svg">
<g id="#fefffeff">
<path fill="#fefffe" opacity="1.00" d=" M 14.25 6.00 C 16.08 6.02 17.91 6.01 19.73 5.99 C 17.77 10.32 15.83 14.66 13.82 18.96 C 14.73 18.98 16.53 19.00 17.43 19.01 C 17.43 17.68 17.43 16.34 17.43 15.01 C 19.18 15.03 20.94 15.02 22.70 14.99 C 22.69 16.31 22.69 17.63 22.68 18.95 C 23.41 18.98 24.87 19.04 25.61 19.07 C 25.59 20.24 25.58 21.42 25.56 22.59 C 24.84 22.59 23.40 22.57 22.68 22.56 C 22.69 24.90 22.69 27.24 22.70 29.58 C 20.94 29.58 19.18 29.58 17.42 29.57 C 17.43 27.24 17.44 24.90 17.44 22.56 C 14.30 22.55 11.15 22.57 8.00 22.60 C 7.94 16.49 12.15 11.51 14.25 6.00 Z" />
</g>
<g id="#1e73bfff">
</g>
</svg>
