<?xml version="1.0" encoding="UTF-8" ?>
<!DOCTYPE svg PUBLIC "-//W3C//DTD SVG 1.1//EN" "http://www.w3.org/Graphics/SVG/1.1/DTD/svg11.dtd">
<svg width="80pt" height="80pt" viewBox="0 0 80 80" version="1.1" xmlns="http://www.w3.org/2000/svg">
<g id="#ffffffff">
</g>
<g id="#1e73bfff">
<path fill="#1e73bf" opacity="1.00" d=" M 20.81 16.37 C 16.36 14.36 17.40 7.05 22.09 6.14 C 25.13 5.23 27.78 7.15 29.34 9.59 C 31.06 9.59 32.78 9.59 34.51 9.61 C 33.62 11.86 31.43 12.82 29.33 13.61 C 27.56 16.38 23.89 18.53 20.81 16.37 Z" />
<path fill="#1e73bf" opacity="1.00" d=" M 14.18 21.02 C 15.35 17.07 21.17 16.37 23.91 19.12 C 27.16 22.24 30.22 25.53 33.45 28.66 C 35.83 28.85 39.10 27.92 40.49 30.50 C 41.59 31.92 40.52 33.64 39.95 35.03 C 45.19 45.65 50.11 56.43 55.50 66.98 C 60.90 64.30 66.32 61.67 71.74 59.03 C 72.06 59.57 72.70 60.64 73.03 61.18 C 66.77 64.24 60.50 67.27 54.25 70.33 C 48.67 58.75 43.14 47.15 37.34 35.68 C 35.03 35.72 32.72 35.75 30.41 35.73 C 28.79 33.95 27.10 32.25 25.35 30.60 C 25.52 35.57 25.07 40.58 25.59 45.53 C 27.48 53.40 29.93 61.14 31.76 69.03 C 32.45 71.85 28.70 73.98 26.43 72.41 C 24.85 71.42 24.68 69.36 24.15 67.74 C 22.42 60.02 19.97 52.49 18.02 44.83 C 16.69 44.81 15.36 44.79 14.03 44.76 C 14.24 36.85 13.91 28.93 14.18 21.02 Z" />
<path fill="#1e73bf" opacity="1.00" d=" M 58.21 40.55 C 60.84 39.22 63.48 37.88 66.14 36.59 C 69.07 42.99 72.52 49.16 75.17 55.67 C 72.01 56.97 68.96 58.50 65.91 60.04 C 63.63 55.29 61.42 50.51 58.93 45.86 C 59.37 45.66 60.26 45.28 60.70 45.09 C 59.86 43.58 59.03 42.07 58.21 40.55 Z" />
<path fill="#1e73bf" opacity="1.00" d=" M 46.81 45.98 C 49.42 44.78 51.99 43.49 54.54 42.16 C 55.23 43.51 55.92 44.86 56.68 46.17 C 57.91 46.66 58.88 47.56 59.32 48.83 C 61.16 52.73 62.97 56.64 65.02 60.42 C 62.03 61.87 59.04 63.33 56.05 64.80 C 52.92 58.56 50.00 52.20 46.81 45.98 Z" />
<path fill="#1e73bf" opacity="1.00" d=" M 10.53 65.52 C 13.43 62.25 16.84 59.49 19.93 56.41 C 20.53 59.00 21.25 61.56 22.06 64.09 C 18.29 67.15 14.46 73.68 8.82 71.05 C 9.01 69.11 9.05 66.98 10.53 65.52 Z" />
<path fill="#1e73bf" opacity="1.00" d=" M 42.22 62.32 C 46.10 60.00 51.18 63.61 50.86 67.94 C 50.79 72.36 44.99 75.33 41.50 72.43 C 37.93 70.14 38.31 64.06 42.22 62.32 Z" />
</g>
</svg>
