<?xml version="1.0" encoding="UTF-8" ?>
<!DOCTYPE svg PUBLIC "-//W3C//DTD SVG 1.1//EN" "http://www.w3.org/Graphics/SVG/1.1/DTD/svg11.dtd">
<svg width="80pt" height="80pt" viewBox="0 0 80 80" version="1.1" xmlns="http://www.w3.org/2000/svg">
<g id="#ffffffff">
</g>
<g id="#1e73bfff">
<path fill="#1e73bf" opacity="1.00" d=" M 13.93 20.97 C 31.00 15.04 50.11 15.04 67.18 20.97 C 68.70 24.01 69.86 27.23 70.63 30.54 C 65.68 31.63 60.55 31.02 55.89 29.07 C 55.18 27.31 54.37 25.33 52.37 24.73 C 46.84 22.83 40.86 23.33 35.11 23.49 C 31.27 23.79 26.19 24.44 25.29 29.01 C 20.76 31.50 15.34 32.52 10.42 30.55 C 11.26 27.25 12.44 24.04 13.93 20.97 Z" />
<path fill="#1e73bf" opacity="1.00" d=" M 28.78 28.29 C 31.05 28.29 33.32 28.29 35.59 28.30 C 35.59 29.73 35.59 31.16 35.59 32.60 C 38.90 32.64 42.22 32.62 45.53 32.60 C 45.53 31.16 45.53 29.72 45.53 28.29 C 47.79 28.29 50.05 28.29 52.32 28.29 C 52.50 30.77 51.74 33.57 53.30 35.74 C 56.19 40.48 59.39 45.04 62.14 49.87 C 64.66 54.35 63.56 59.67 63.82 64.56 C 48.31 64.59 32.81 64.58 17.30 64.57 C 17.42 59.72 16.66 54.54 19.04 50.08 C 21.68 45.15 24.92 40.58 27.81 35.80 C 29.35 33.60 28.60 30.79 28.78 28.29 M 31.45 37.41 C 31.43 38.41 31.41 39.42 31.40 40.42 C 32.84 40.44 34.29 40.45 35.73 40.43 C 35.72 39.42 35.70 38.41 35.69 37.41 C 34.27 37.40 32.86 37.40 31.45 37.41 M 38.23 37.34 C 38.21 38.11 38.17 39.64 38.15 40.41 C 39.64 40.43 41.14 40.43 42.64 40.43 C 42.55 39.71 42.38 38.26 42.29 37.53 C 40.95 37.35 39.59 37.37 38.23 37.34 M 45.01 37.57 C 44.93 38.27 44.77 39.69 44.69 40.40 C 46.25 40.42 47.82 40.44 49.38 40.44 C 49.31 39.71 49.16 38.25 49.09 37.52 C 47.74 37.32 46.35 37.32 45.01 37.57 M 31.42 42.22 C 31.43 43.22 31.44 44.23 31.45 45.23 C 32.49 45.25 34.57 45.29 35.61 45.30 C 35.66 44.28 35.71 43.25 35.75 42.23 C 34.31 42.21 32.86 42.20 31.42 42.22 M 38.17 42.26 C 38.18 43.01 38.21 44.50 38.22 45.24 C 39.63 45.25 41.04 45.25 42.45 45.26 C 42.45 44.49 42.44 42.95 42.44 42.18 C 41.02 42.20 39.59 42.23 38.17 42.26 M 44.84 42.27 C 44.85 43.01 44.86 44.49 44.87 45.23 C 46.32 45.24 47.76 45.26 49.21 45.27 C 49.21 44.50 49.21 42.96 49.21 42.19 C 47.76 42.21 46.30 42.24 44.84 42.27 M 31.41 47.07 C 31.40 47.77 31.38 49.17 31.37 49.87 C 32.79 49.92 34.21 49.95 35.64 49.97 C 35.68 49.27 35.77 47.85 35.81 47.15 C 34.34 47.10 32.88 47.07 31.41 47.07 M 38.17 47.11 C 38.18 47.81 38.20 49.20 38.22 49.89 C 39.62 49.90 41.03 49.92 42.44 49.93 C 42.44 49.21 42.45 47.77 42.45 47.05 C 41.02 47.07 39.59 47.09 38.17 47.11 M 44.61 47.16 C 44.13 50.30 47.04 50.27 49.31 49.95 C 49.28 49.22 49.21 47.78 49.18 47.05 C 47.65 47.07 46.13 47.11 44.61 47.16 Z" />
<path fill="#1e73bf" opacity="1.00" d=" M 10.36 32.59 C 15.60 34.08 21.07 33.30 25.97 31.10 C 25.43 33.27 25.50 36.04 23.42 37.42 C 20.44 39.35 16.61 39.09 13.24 38.65 C 10.42 38.09 10.73 34.77 10.36 32.59 Z" />
<path fill="#1e73bf" opacity="1.00" d=" M 55.21 30.86 C 60.12 32.99 65.54 33.72 70.78 32.46 C 70.24 34.42 70.80 37.47 68.29 38.18 C 64.71 39.06 60.51 38.91 57.39 36.76 C 55.46 35.43 55.58 32.92 55.21 30.86 Z" />
</g>
</svg>
