<?xml version="1.0" encoding="UTF-8" ?>
<!DOCTYPE svg PUBLIC "-//W3C//DTD SVG 1.1//EN" "http://www.w3.org/Graphics/SVG/1.1/DTD/svg11.dtd">
<svg width="80pt" height="80pt" viewBox="0 0 80 80" version="1.1" xmlns="http://www.w3.org/2000/svg">
<g id="#ffffffff">
<path fill="#ffffff" opacity="1.00" d=" M 0.00 0.00 L 80.00 0.00 L 80.00 80.00 L 0.00 80.00 L 0.00 0.00 M 44.12 20.57 C 46.58 22.05 48.82 23.84 50.89 25.83 C 52.68 24.77 54.92 23.83 55.57 21.63 C 57.12 17.72 53.15 13.20 49.06 14.22 C 45.89 14.59 44.50 17.79 44.12 20.57 M 37.36 24.49 C 34.01 25.74 31.74 29.42 32.21 32.99 C 32.61 37.56 37.44 41.24 41.96 40.07 C 46.70 39.21 49.80 33.62 47.87 29.16 C 46.40 25.04 41.41 22.91 37.36 24.49 M 7.21 44.84 C 9.68 49.96 11.94 55.17 14.25 60.35 C 16.75 58.93 19.45 55.97 22.55 57.54 C 27.09 59.52 31.31 62.15 35.83 64.18 C 38.62 65.39 42.07 65.44 44.70 63.78 C 52.18 59.33 59.33 54.33 66.60 49.54 C 68.49 48.38 69.92 46.68 71.24 44.93 C 69.63 41.60 65.87 41.74 63.05 43.39 C 61.85 39.68 57.88 40.72 55.28 42.16 C 50.93 38.72 46.24 43.38 42.44 45.56 C 45.44 45.78 48.59 45.37 51.45 46.47 C 53.99 47.45 54.72 51.10 52.98 53.10 C 51.57 54.88 49.15 55.34 47.00 55.44 C 40.47 55.58 32.79 56.62 28.01 51.07 C 34.44 53.36 41.35 53.43 48.08 52.84 C 50.03 52.81 52.62 51.21 51.12 49.03 C 46.97 47.42 42.22 48.78 38.09 46.96 C 32.39 44.93 28.37 38.73 21.88 39.05 C 16.65 39.93 12.08 42.89 7.21 44.84 Z" />
<path fill="#ffffff" opacity="1.00" d=" M 48.41 17.94 C 49.07 17.68 50.40 17.18 51.07 16.92 C 51.12 18.76 51.06 20.60 51.13 22.44 C 50.67 22.40 49.75 22.33 49.29 22.29 C 49.02 20.83 48.73 19.38 48.41 17.94 Z" />
<path fill="#ffffff" opacity="1.00" d=" M 37.31 29.93 C 38.69 29.28 40.07 28.66 41.47 28.07 C 41.54 30.57 41.56 33.07 41.63 35.57 C 41.01 35.65 39.75 35.82 39.13 35.90 C 39.18 33.71 39.54 31.24 37.31 29.93 Z" />
</g>
<g id="#1e73bfff">
<path fill="#1e73bf" opacity="1.00" d=" M 44.12 20.57 C 44.50 17.79 45.89 14.59 49.06 14.22 C 53.15 13.20 57.12 17.72 55.57 21.63 C 54.92 23.83 52.68 24.77 50.89 25.83 C 48.82 23.84 46.58 22.05 44.12 20.57 M 48.41 17.94 C 48.73 19.38 49.02 20.83 49.29 22.29 C 49.75 22.33 50.67 22.40 51.13 22.44 C 51.06 20.60 51.12 18.76 51.07 16.92 C 50.40 17.18 49.07 17.68 48.41 17.94 Z" />
<path fill="#1e73bf" opacity="1.00" d=" M 37.36 24.49 C 41.41 22.91 46.40 25.04 47.87 29.16 C 49.80 33.62 46.70 39.21 41.96 40.07 C 37.44 41.24 32.61 37.56 32.21 32.99 C 31.74 29.42 34.01 25.74 37.36 24.49 M 37.31 29.93 C 39.54 31.24 39.18 33.71 39.13 35.90 C 39.75 35.82 41.01 35.65 41.63 35.57 C 41.56 33.07 41.54 30.57 41.47 28.07 C 40.07 28.66 38.69 29.28 37.31 29.93 Z" />
<path fill="#1e73bf" opacity="1.00" d=" M 7.21 44.84 C 12.08 42.89 16.65 39.93 21.88 39.05 C 28.37 38.73 32.39 44.93 38.09 46.96 C 42.22 48.78 46.97 47.42 51.12 49.03 C 52.62 51.21 50.03 52.81 48.08 52.84 C 41.35 53.43 34.44 53.36 28.01 51.07 C 32.79 56.62 40.47 55.58 47.00 55.44 C 49.15 55.34 51.57 54.88 52.98 53.10 C 54.72 51.10 53.99 47.45 51.45 46.47 C 48.59 45.37 45.44 45.78 42.44 45.56 C 46.24 43.38 50.93 38.72 55.28 42.16 C 57.88 40.72 61.85 39.68 63.05 43.39 C 65.87 41.74 69.63 41.60 71.24 44.93 C 69.92 46.68 68.49 48.38 66.60 49.54 C 59.33 54.33 52.18 59.33 44.70 63.78 C 42.07 65.44 38.62 65.39 35.83 64.18 C 31.31 62.15 27.09 59.52 22.55 57.54 C 19.45 55.97 16.75 58.93 14.25 60.35 C 11.94 55.17 9.68 49.96 7.21 44.84 Z" />
</g>
</svg>
