<?xml version="1.0" encoding="UTF-8" ?>
<!DOCTYPE svg PUBLIC "-//W3C//DTD SVG 1.1//EN" "http://www.w3.org/Graphics/SVG/1.1/DTD/svg11.dtd">
<svg width="35pt" height="35pt" viewBox="0 0 35 35" version="1.1" xmlns="http://www.w3.org/2000/svg">
<g id="#fefffeff">
<path fill="#fefffe" opacity="1.00" d=" M 12.50 6.56 C 15.69 4.19 19.92 4.98 23.56 5.52 C 23.53 6.58 23.46 8.69 23.43 9.75 C 21.36 9.29 19.13 7.81 17.05 9.04 C 14.82 9.92 14.15 12.46 13.01 14.31 C 15.94 13.96 19.29 13.44 21.91 15.18 C 26.17 18.05 25.52 25.55 20.87 27.69 C 16.56 29.78 10.21 28.61 8.43 23.71 C 6.42 17.98 7.40 10.39 12.50 6.56 M 12.96 18.92 C 12.53 21.75 14.25 24.44 16.95 25.32 C 18.36 23.92 19.92 22.21 19.26 20.03 C 18.80 17.07 14.62 16.84 12.96 18.92 Z" />
</g>
<g id="#1e73bfff">
</g>
</svg>
