<?xml version="1.0" encoding="UTF-8" ?>
<!DOCTYPE svg PUBLIC "-//W3C//DTD SVG 1.1//EN" "http://www.w3.org/Graphics/SVG/1.1/DTD/svg11.dtd">
<svg width="80pt" height="80pt" viewBox="0 0 80 80" version="1.1" xmlns="http://www.w3.org/2000/svg">
<g id="#ffffffff">
</g>
<g id="#1e73bfff">
<path fill="#1e73bf" opacity="1.00" d=" M 22.34 18.47 C 32.87 18.03 43.45 18.41 54.01 18.28 C 56.22 18.00 58.92 19.53 58.85 21.98 C 58.91 34.66 58.86 47.35 58.87 60.04 C 59.20 62.17 57.18 64.12 55.08 63.88 C 44.69 63.95 34.29 63.89 23.91 63.90 C 21.61 64.30 19.26 62.43 19.35 60.07 C 19.27 47.70 19.36 35.32 19.31 22.94 C 19.05 20.95 20.46 19.03 22.34 18.47 M 23.21 22.35 C 23.35 34.95 23.28 47.55 23.25 60.16 C 33.87 60.16 44.49 60.17 55.11 60.16 C 55.10 47.55 55.10 34.94 55.11 22.33 C 44.48 22.33 33.84 22.30 23.21 22.35 Z" />
<path fill="#1e73bf" opacity="1.00" d=" M 28.18 31.88 C 25.80 30.75 27.96 27.94 29.93 28.37 C 35.97 28.26 42.01 28.34 48.04 28.34 C 49.57 28.14 50.64 29.34 51.86 30.00 C 49.84 33.59 45.39 32.05 42.03 32.35 C 37.44 32.03 32.66 32.96 28.18 31.88 Z" />
<path fill="#1e73bf" opacity="1.00" d=" M 28.20 39.95 C 26.42 39.11 27.15 36.41 29.02 36.42 C 33.88 36.26 38.77 36.17 43.62 36.46 C 45.93 36.62 45.02 39.03 44.28 40.30 C 38.93 39.99 33.52 40.70 28.20 39.95 Z" />
<path fill="#1e73bf" opacity="1.00" d=" M 28.14 44.25 C 35.09 43.45 42.21 43.94 49.22 43.99 C 51.35 43.76 52.19 47.46 49.72 47.55 C 42.84 47.94 35.89 47.76 28.99 47.64 C 27.18 47.66 26.43 45.04 28.14 44.25 Z" />
<path fill="#1e73bf" opacity="1.00" d=" M 26.55 53.22 C 27.96 52.54 29.35 51.56 31.00 51.73 C 35.30 51.83 39.66 51.40 43.92 52.02 C 44.42 52.49 45.40 53.44 45.89 53.91 C 44.70 54.75 43.62 56.06 41.99 55.76 C 37.96 55.78 33.92 55.83 29.88 55.73 C 28.16 56.01 27.49 54.25 26.55 53.22 Z" />
</g>
</svg>
