<?xml version="1.0" encoding="UTF-8" ?>
<!DOCTYPE svg PUBLIC "-//W3C//DTD SVG 1.1//EN" "http://www.w3.org/Graphics/SVG/1.1/DTD/svg11.dtd">
<svg width="80pt" height="80pt" viewBox="0 0 80 80" version="1.1" xmlns="http://www.w3.org/2000/svg">
<g id="#ffffffff">
</g>
<g id="#1e73bfff">
<path fill="#1e73bf" opacity="1.00" d=" M 33.99 7.10 C 35.33 5.61 37.41 5.09 39.08 4.02 C 41.25 4.39 43.83 4.91 44.83 7.15 C 45.46 8.89 45.91 10.68 46.66 12.38 C 46.61 12.81 46.51 13.68 46.46 14.12 C 44.37 16.58 43.04 21.02 39.12 20.77 C 35.40 19.82 33.77 15.69 32.28 12.52 C 33.56 10.98 33.60 8.97 33.99 7.10 Z" />
<path fill="#1e73bf" opacity="1.00" d=" M 27.11 25.07 C 28.55 23.45 30.75 23.29 32.77 23.10 C 34.24 25.58 35.71 28.07 37.18 30.56 C 37.43 30.00 37.93 28.88 38.18 28.31 C 37.56 26.72 37.26 25.03 37.31 23.31 C 38.95 23.33 40.58 23.44 42.19 23.77 C 41.81 25.30 41.41 26.83 40.99 28.35 C 41.22 28.91 41.70 30.03 41.94 30.59 C 43.41 28.08 44.90 25.58 46.40 23.08 C 51.18 22.79 53.87 27.12 57.07 29.89 C 58.86 31.72 62.02 33.73 60.64 36.73 C 58.49 40.11 56.10 43.40 53.45 46.40 C 51.63 48.31 49.16 46.67 47.74 45.18 C 49.19 53.07 49.86 61.06 51.10 68.98 C 51.23 70.81 52.01 73.03 50.56 74.56 C 48.72 77.12 43.99 75.96 43.75 72.71 C 42.34 64.67 40.70 56.66 39.84 48.54 C 37.92 56.60 37.01 64.86 35.33 72.97 C 34.90 76.11 30.22 77.03 28.48 74.49 C 27.19 72.94 27.89 70.85 28.03 69.06 C 29.19 61.03 30.01 52.95 31.45 44.97 C 30.39 45.85 29.44 46.98 28.07 47.37 C 24.58 46.85 23.34 43.04 21.23 40.71 C 19.89 38.61 16.95 36.21 18.60 33.51 C 21.17 30.46 24.25 27.85 27.11 25.07 M 26.01 35.94 C 27.87 38.16 29.71 40.40 31.50 42.69 C 30.96 38.90 30.66 35.09 30.43 31.28 C 28.96 32.84 27.49 34.39 26.01 35.94 M 47.73 42.50 C 49.51 40.30 51.31 38.10 53.13 35.93 C 51.67 34.42 50.22 32.89 48.77 31.37 C 48.44 35.08 48.15 38.80 47.73 42.50 Z" />
</g>
</svg>
